<?xml version="1.0" standalone="no"?>
<!DOCTYPE svg PUBLIC "-//W3C//DTD SVG 20010904//EN"
 "http://www.w3.org/TR/2001/REC-SVG-20010904/DTD/svg10.dtd">
<svg version="1.0" xmlns="http://www.w3.org/2000/svg"
 width="840.000000pt" height="401.000000pt" viewBox="0 0 840.000000 401.000000"
 preserveAspectRatio="xMidYMid meet">

<g transform="translate(0.000000,401.000000) scale(0.100000,-0.100000)"
fill="#000000" stroke="none">
<path d="M3980 3999 c-1057 -75 -2190 -542 -3260 -1345 -96 -72 -245 -190
-331 -262 -161 -135 -379 -338 -379 -353 0 -15 250 -267 375 -379 1084 -966
2354 -1549 3575 -1641 339 -25 790 -1 1125 62 979 182 1989 715 2875 1516 151
136 323 310 397 399 l36 45 -34 37 c-19 20 -68 73 -109 117 -311 337 -834 750
-1305 1032 -944 563 -2007 840 -2965 772z m600 -357 c507 -110 915 -424 1144
-881 111 -220 156 -407 163 -681 6 -232 -12 -369 -76 -560 -86 -256 -202 -442
-401 -640 -198 -199 -384 -315 -640 -401 -191 -64 -328 -82 -560 -76 -219 6
-318 23 -491 83 -245 85 -457 221 -640 410 -240 249 -382 530 -440 872 -18
110 -21 152 -16 312 4 134 11 212 27 285 69 324 214 590 449 826 258 257 549
406 910 464 129 21 447 14 571 -13z m1450 -329 c648 -268 1320 -706 1809
-1178 l104 -101 -154 -141 c-650 -599 -1378 -1050 -2102 -1305 l-138 -48 88
87 c307 304 493 666 570 1108 24 139 24 461 0 600 -73 420 -222 722 -525 1065
l-54 60 134 -46 c73 -25 194 -70 268 -101z m-3235 46 c-354 -376 -550 -942
-507 -1466 15 -184 41 -313 96 -478 101 -302 254 -551 475 -773 51 -51 90 -92
88 -92 -3 0 -77 25 -166 55 -757 260 -1523 721 -2188 1317 -62 56 -113 104
-112 107 0 7 55 53 224 190 513 416 1110 782 1680 1030 170 75 438 178 464
180 7 1 -17 -31 -54 -70z"/>
<path d="M4095 3080 c-80 -13 -213 -55 -294 -93 -71 -33 -71 -34 24 -56 94
-22 172 -96 196 -185 19 -71 6 -176 -31 -253 -42 -86 -150 -196 -237 -241
-188 -99 -397 -68 -484 72 l-18 30 -11 -28 c-27 -71 -42 -212 -37 -336 9 -199
63 -370 169 -531 148 -225 366 -380 634 -450 126 -33 368 -34 495 -2 195 50
359 142 499 283 141 140 233 304 283 499 32 127 31 369 -2 495 -102 392 -385
673 -781 778 -87 23 -308 33 -405 18z"/>
</g>
</svg>
