<?xml version="1.0" standalone="no"?>
<!DOCTYPE svg PUBLIC "-//W3C//DTD SVG 20010904//EN"
 "http://www.w3.org/TR/2001/REC-SVG-20010904/DTD/svg10.dtd">
<svg version="1.0" xmlns="http://www.w3.org/2000/svg"
 width="535.000000pt" height="709.000000pt" viewBox="0 0 535.000000 709.000000"
 preserveAspectRatio="xMidYMid meet">

<g transform="translate(0.000000,709.000000) scale(0.100000,-0.100000)"
fill="#000000" stroke="none">
<path d="M767 7080 c-368 -62 -652 -333 -745 -710 -14 -58 -17 -253 -20 -1870
-2 -1236 0 -1841 8 -1918 6 -63 22 -148 36 -195 83 -267 288 -484 545 -578
159 -58 171 -59 872 -59 l642 0 285 -875 c156 -481 287 -870 290 -863 4 7 134
401 290 875 l284 862 670 3 c733 4 691 1 859 64 137 52 301 182 393 311 58 80
118 210 146 314 l23 84 3 1830 c2 1242 0 1860 -8 1922 -47 413 -353 736 -760
802 -78 13 -3738 13 -3813 1z m2003 -665 c98 -26 179 -73 255 -149 117 -117
165 -234 165 -401 0 -166 -48 -283 -165 -400 -113 -113 -239 -165 -403 -165
-422 0 -694 455 -497 829 70 132 181 226 325 275 89 30 230 35 320 11z m422
-2452 l3 -1058 68 -3 67 -3 0 -64 0 -65 -650 0 -650 0 0 65 0 65 34 0 c18 0
48 3 65 6 l31 7 0 968 0 969 -65 0 -65 0 0 85 0 85 580 0 580 0 2 -1057z"/>
</g>
</svg>
