<?xml version="1.0" standalone="no"?>
<!DOCTYPE svg PUBLIC "-//W3C//DTD SVG 20010904//EN"
 "http://www.w3.org/TR/2001/REC-SVG-20010904/DTD/svg10.dtd">
<svg version="1.0" xmlns="http://www.w3.org/2000/svg"
 width="686.000000pt" height="562.000000pt" viewBox="0 0 686.000000 562.000000"
 preserveAspectRatio="xMidYMid meet">
<metadata>
Created by potrace 1.16, written by Peter Selinger 2001-2019
</metadata>
<g transform="translate(0.000000,562.000000) scale(0.100000,-0.100000)"
fill="#000000" stroke="none">
<path d="M460 5613 c-161 -27 -327 -148 -398 -289 -67 -133 -62 38 -62 -2153
0 -1623 3 -1995 14 -2036 46 -175 174 -318 345 -384 l66 -26 1148 -3 1147 -2
0 210 0 210 -1104 2 c-1099 3 -1105 3 -1133 24 -15 11 -36 36 -45 55 -17 32
-18 146 -18 1949 0 1849 1 1917 19 1950 10 19 34 44 52 55 34 20 52 20 2044
20 1992 0 2010 0 2043 -20 19 -11 42 -37 53 -57 18 -36 19 -72 19 -938 l0
-900 210 0 210 0 0 933 c0 1021 2 984 -60 1106 -36 72 -123 168 -191 212 -28
17 -80 44 -117 58 l-67 26 -2075 1 c-1141 1 -2086 0 -2100 -3z"/>
<path d="M980 4349 c-63 -26 -100 -85 -100 -162 0 -60 23 -104 73 -141 l28
-21 1499 0 1499 0 28 21 c51 38 73 81 73 144 0 63 -22 106 -73 144 l-28 21
-1487 2 c-974 1 -1496 -2 -1512 -8z"/>
<path d="M6055 4006 c-16 -8 -117 -101 -223 -208 l-194 -195 419 -391 418
-392 178 178 c98 97 185 189 193 204 16 32 19 125 3 165 -14 37 -583 609 -631
634 -43 22 -119 25 -163 5z"/>
<path d="M4359 2327 l-1165 -1172 385 -412 c212 -226 391 -412 396 -412 10 -1
2395 2379 2395 2390 0 9 -821 774 -834 776 -6 2 -536 -525 -1177 -1170z"/>
<path d="M962 3263 c-52 -26 -76 -68 -80 -143 -3 -55 0 -70 20 -99 13 -19 39
-44 58 -55 35 -21 40 -21 1520 -21 1480 0 1485 0 1520 21 56 33 80 77 80 148
0 49 -5 69 -24 97 -51 75 76 69 -1578 69 -1346 0 -1486 -2 -1516 -17z"/>
<path d="M970 2188 c-63 -32 -90 -77 -90 -148 0 -66 24 -110 79 -147 l34 -23
1000 0 999 0 40 22 c119 67 109 242 -16 299 -39 18 -89 19 -1021 19 l-981 0
-44 -22z"/>
<path d="M3091 1003 c-133 -508 -233 -925 -227 -948 4 -17 18 -31 39 -40 31
-13 62 -7 488 97 250 61 458 114 463 119 7 6 -713 785 -744 804 -5 3 -14 -11
-19 -32z"/>
</g>
</svg>
