<?xml version="1.0" standalone="no"?>
<!DOCTYPE svg PUBLIC "-//W3C//DTD SVG 20010904//EN"
 "http://www.w3.org/TR/2001/REC-SVG-20010904/DTD/svg10.dtd">
<svg version="1.0" xmlns="http://www.w3.org/2000/svg"
 width="644.000000pt" height="477.000000pt" viewBox="0 0 644.000000 477.000000"
 preserveAspectRatio="xMidYMid meet">
<metadata>
Created by potrace 1.16, written by Peter Selinger 2001-2019
</metadata>
<g transform="translate(0.000000,477.000000) scale(0.100000,-0.100000)"
fill="#000000" stroke="none">
<path d="M612 4759 c-81 -10 -150 -33 -232 -75 -141 -73 -240 -175 -310 -319
-73 -148 -70 -102 -70 -1156 0 -1071 -4 -1016 82 -1182 56 -108 181 -236 283
-289 72 -37 191 -78 229 -78 11 0 27 -4 34 -8 10 -7 -51 -163 -249 -641 -144
-347 -259 -635 -256 -638 4 -3 440 283 970 636 l963 641 217 0 218 0 11 -32
c26 -74 90 -187 142 -250 106 -128 255 -224 421 -270 78 -21 96 -22 805 -27
l725 -6 792 -528 c436 -290 800 -530 808 -533 10 -4 -1 32 -34 112 -27 66
-126 305 -220 533 -95 227 -173 418 -174 423 -1 5 31 18 72 29 219 56 414 217
515 423 85 175 80 108 84 1101 2 592 -1 903 -8 949 -27 177 -99 317 -229 447
-101 101 -192 158 -323 202 l-93 32 -927 3 c-777 2 -928 5 -928 16 0 8 -21 56
-46 107 -104 206 -309 349 -546 379 -99 12 -2630 12 -2726 -1z m5137 -814
c166 -44 301 -167 363 -331 l23 -59 3 -857 c2 -746 1 -866 -13 -924 -41 -179
-180 -325 -360 -381 -57 -17 -126 -18 -1315 -18 l-1255 0 -71 22 c-116 37
-231 126 -287 222 l-18 31 251 0 c298 0 360 10 500 77 82 39 108 58 185 137
73 73 99 108 133 176 79 162 75 111 79 1068 l4 852 862 0 c715 0 871 -3 916
-15z"/>
<path d="M4269 2792 c-73 -38 -112 -100 -117 -188 -4 -54 0 -72 22 -118 81
-166 321 -168 408 -3 16 31 22 60 22 107 0 178 -177 285 -335 202z"/>
<path d="M4875 2805 c-51 -18 -120 -91 -134 -141 -26 -93 -7 -171 58 -235 93
-94 227 -94 320 -1 95 96 96 230 2 323 -66 67 -155 86 -246 54z"/>
<path d="M5462 2807 c-49 -19 -100 -63 -124 -110 -31 -58 -31 -156 0 -214 71
-135 257 -164 366 -56 109 107 78 300 -58 370 -39 20 -142 26 -184 10z"/>
</g>
</svg>
