<?xml version="1.0" standalone="no"?>
<!DOCTYPE svg PUBLIC "-//W3C//DTD SVG 20010904//EN"
 "http://www.w3.org/TR/2001/REC-SVG-20010904/DTD/svg10.dtd">
<svg version="1.0" xmlns="http://www.w3.org/2000/svg"
 width="535.000000pt" height="709.000000pt" viewBox="0 0 535.000000 709.000000"
 preserveAspectRatio="xMidYMid meet">
<metadata>
Created by potrace 1.16, written by Peter Selinger 2001-2019
</metadata>
<g transform="translate(0.000000,709.000000) scale(0.100000,-0.100000)"
fill="#000000" stroke="none">
<path d="M715 7073 c-335 -72 -601 -331 -688 -670 l-22 -88 0 -1900 0 -1900
23 -85 c95 -345 356 -595 694 -664 66 -14 173 -16 727 -16 l650 0 105 -322
c58 -178 186 -570 284 -873 99 -302 183 -549 188 -548 5 1 138 392 295 870
l286 868 679 5 c664 6 681 6 751 28 322 99 551 333 635 652 l23 85 0 1905 0
1905 -22 85 c-82 310 -319 555 -633 652 l-75 23 -1915 2 c-1672 1 -1924 0
-1985 -14z m2747 -993 c141 -14 281 -50 386 -101 67 -32 102 -58 167 -122 69
-69 90 -97 128 -177 83 -173 107 -315 107 -645 0 -310 -18 -424 -91 -573 -73
-149 -219 -275 -421 -364 -50 -23 -218 -85 -372 -138 l-281 -98 -3 -126 -3
-126 -444 0 -445 0 2 342 3 343 580 206 580 207 3 232 c1 148 -2 246 -9 273
-15 55 -90 131 -144 146 -28 7 -293 11 -867 11 l-828 0 0 314 0 314 33 6 c79
14 225 26 377 32 91 3 216 12 278 20 62 9 167 19 235 23 184 12 907 12 1029 1z
m-382 -3150 l0 -370 -445 0 -445 0 0 370 0 370 445 0 445 0 0 -370z"/>
</g>
</svg>
