<?xml version="1.0" standalone="no"?>
<!DOCTYPE svg PUBLIC "-//W3C//DTD SVG 20010904//EN"
 "http://www.w3.org/TR/2001/REC-SVG-20010904/DTD/svg10.dtd">
<svg version="1.0" xmlns="http://www.w3.org/2000/svg"
 width="535.000000pt" height="709.000000pt" viewBox="0 0 535.000000 709.000000"
 preserveAspectRatio="xMidYMid meet">
<metadata>
Created by potrace 1.16, written by Peter Selinger 2001-2019
</metadata>
<g transform="translate(0.000000,709.000000) scale(0.100000,-0.100000)"
fill="#000000" stroke="none">
<path d="M715 7073 c-335 -72 -601 -331 -688 -670 l-22 -88 0 -1900 0 -1900
23 -85 c95 -345 356 -595 694 -664 66 -14 173 -16 727 -16 l650 0 105 -322
c58 -178 186 -570 284 -873 99 -302 183 -549 188 -548 5 1 138 392 295 870
l286 868 679 5 c664 6 681 6 751 28 322 99 551 333 635 652 l23 85 0 1905 0
1905 -22 85 c-82 310 -319 555 -633 652 l-75 23 -1915 2 c-1672 1 -1924 0
-1985 -14z m2129 -865 c15 -84 30 -163 33 -174 4 -19 18 -24 94 -39 49 -10 91
-16 93 -14 1 2 44 68 95 146 l92 142 62 -24 c59 -22 179 -74 185 -79 1 -2 -14
-77 -33 -167 -19 -90 -35 -167 -35 -171 0 -4 34 -30 75 -58 l75 -51 139 96
c76 52 143 95 148 95 4 0 50 -42 100 -92 l91 -93 -99 -144 -100 -144 48 -73
c26 -41 55 -74 64 -74 9 0 80 14 157 30 78 17 150 30 160 30 11 0 24 -12 31
-27 28 -61 81 -196 81 -207 0 -7 -65 -55 -145 -107 -105 -68 -143 -98 -139
-109 3 -8 11 -48 17 -88 8 -49 16 -74 27 -77 8 -2 78 -16 155 -30 77 -14 147
-28 156 -31 21 -6 31 -97 22 -198 l-6 -74 -171 -33 -171 -32 -18 -90 c-10 -49
-16 -91 -15 -92 2 -1 67 -43 146 -94 78 -52 142 -95 142 -97 0 -18 -98 -244
-106 -244 -2 0 -79 16 -171 35 -92 19 -170 32 -173 27 -22 -25 -90 -134 -90
-142 0 -6 41 -71 91 -146 63 -95 88 -141 84 -154 -3 -10 -44 -55 -91 -99 l-85
-80 -112 76 c-62 42 -126 87 -144 100 l-32 23 -76 -51 c-41 -28 -75 -52 -75
-54 0 -3 59 -298 65 -321 5 -24 11 -21 -162 -90 l-82 -32 -92 141 c-50 78 -93
144 -95 146 -4 5 -161 -21 -174 -29 -6 -4 -25 -81 -43 -173 -32 -165 -32 -165
-61 -171 -37 -8 -161 -7 -207 0 l-36 6 -28 157 c-16 86 -32 163 -36 171 -4 10
-34 20 -77 28 -38 6 -75 14 -84 17 -10 4 -42 -36 -112 -140 -86 -130 -99 -145
-119 -140 -33 10 -211 86 -219 93 -4 4 9 79 28 167 19 88 34 165 34 170 0 10
-134 105 -149 105 -4 0 -66 -40 -137 -88 -71 -48 -134 -91 -141 -95 -13 -8
-114 81 -165 145 l-31 40 97 143 98 143 -48 73 c-27 41 -49 75 -50 77 0 1 -77
-13 -170 -32 -93 -20 -172 -32 -177 -27 -10 10 -84 182 -93 215 -5 23 5 32
141 121 118 76 146 99 140 113 -3 9 -11 49 -18 88 l-11 71 -173 33 -174 34 3
135 3 135 168 32 c92 17 169 33 170 35 10 13 37 173 30 179 -4 4 -70 48 -145
99 l-137 91 13 38 c8 22 31 77 51 124 l36 85 157 -33 c86 -18 165 -34 174 -34
10 0 37 29 66 72 l49 73 -98 146 -97 146 94 94 94 93 143 -97 c78 -53 145 -97
149 -97 8 0 143 91 146 99 1 3 -13 81 -31 173 l-34 166 66 31 c68 30 168 71
177 71 2 0 48 -66 100 -146 83 -125 99 -145 118 -140 11 2 51 10 88 17 l67 12
10 46 c5 25 19 98 31 161 12 63 24 121 26 128 2 9 39 12 137 12 l133 0 28
-152z"/>
<path d="M2502 5231 c-255 -63 -461 -273 -517 -526 -26 -114 -17 -294 20 -398
57 -165 196 -322 349 -397 115 -57 190 -74 321 -74 132 0 206 17 325 76 69 34
102 59 176 132 75 75 99 107 132 176 55 113 74 200 74 330 -1 123 -17 192 -71
305 -141 296 -484 455 -809 376z"/>
</g>
</svg>
