<?xml version="1.0" standalone="no"?>
<!DOCTYPE svg PUBLIC "-//W3C//DTD SVG 20010904//EN"
 "http://www.w3.org/TR/2001/REC-SVG-20010904/DTD/svg10.dtd">
<svg version="1.0" xmlns="http://www.w3.org/2000/svg"
 width="679.000000pt" height="600.000000pt" viewBox="0 0 679.000000 600.000000"
 preserveAspectRatio="xMidYMid meet">
<metadata>
Created by potrace 1.16, written by Peter Selinger 2001-2019
</metadata>
<g transform="translate(0.000000,600.000000) scale(0.100000,-0.100000)"
fill="#000000" stroke="none">
<path d="M5576 5981 c-95 -39 -146 -86 -197 -181 l-24 -45 0 -2180 0 -2180 28
-53 c36 -68 92 -124 159 -158 75 -39 208 -45 290 -14 80 30 157 102 194 182
l29 63 0 2160 0 2160 -27 57 c-35 76 -95 138 -165 173 -78 39 -212 46 -287 16z"/>
<path d="M4065 5161 l-1040 -488 -3 -1130 -2 -1129 1032 -452 c568 -248 1041
-454 1051 -458 16 -6 17 97 17 2070 0 1142 -3 2076 -7 2075 -5 0 -476 -220
-1048 -488z"/>
<path d="M1182 4654 c-146 -39 -275 -144 -337 -275 -19 -41 -39 -98 -45 -128
-14 -76 -13 -1353 1 -1423 37 -177 165 -322 347 -391 57 -22 64 -22 850 -25
l792 -3 0 1131 0 1130 -777 -1 c-640 0 -787 -3 -831 -15z"/>
<path d="M510 4261 c-171 -55 -338 -193 -417 -347 -64 -122 -86 -216 -86 -354
1 -273 125 -493 355 -633 56 -33 224 -96 232 -86 1 2 -1 238 -5 524 -4 286 -8
609 -8 718 -1 108 -4 197 -8 196 -5 0 -33 -8 -63 -18z"/>
<path d="M6305 3565 c-4 -322 -4 -589 -1 -592 3 -4 32 1 64 11 191 60 339 212
398 411 25 82 25 248 0 330 -50 168 -161 302 -307 373 -46 23 -98 44 -115 47
l-31 6 -8 -586z"/>
<path d="M1193 2155 c-67 -29 -64 33 -61 -1086 l3 -1011 34 -30 33 -30 307 4
c298 4 308 4 384 30 217 73 381 236 455 453 l27 80 3 767 3 767 -30 33 -29 33
-549 2 c-451 2 -554 0 -580 -12z"/>
</g>
</svg>
