<?xml version="1.0" standalone="no"?>
<!DOCTYPE svg PUBLIC "-//W3C//DTD SVG 20010904//EN"
 "http://www.w3.org/TR/2001/REC-SVG-20010904/DTD/svg10.dtd">
<svg version="1.0" xmlns="http://www.w3.org/2000/svg"
 width="591.000000pt" height="519.000000pt" viewBox="0 0 591.000000 519.000000"
 preserveAspectRatio="xMidYMid meet">
<metadata>
Created by potrace 1.16, written by Peter Selinger 2001-2019
</metadata>
<g transform="translate(0.000000,519.000000) scale(0.100000,-0.100000)"
fill="#000000" stroke="none">
<path d="M5092 5034 c-327 -84 -597 -155 -600 -159 -3 -3 65 -77 151 -163
l158 -158 -646 -633 c-468 -458 -650 -631 -663 -627 -9 2 -350 73 -757 156
-503 103 -753 151 -780 147 -31 -3 -252 -131 -955 -554 -818 -492 -917 -555
-937 -589 -30 -51 -30 -123 -2 -173 32 -57 65 -75 139 -79 l65 -3 873 525 873
526 757 -157 c416 -85 778 -156 803 -155 25 0 58 6 72 14 15 7 287 268 604
578 317 311 626 612 686 669 l108 104 159 -158 158 -158 21 69 c65 221 311
1117 309 1123 -2 4 -270 -61 -596 -145z"/>
<path d="M4990 1890 l0 -1890 460 0 460 0 0 1890 0 1890 -460 0 -460 0 0
-1890z"/>
<path d="M1650 1245 l0 -1245 465 0 465 0 0 1245 0 1245 -465 0 -465 0 0
-1245z"/>
<path d="M3320 1070 l0 -1070 460 0 460 0 0 1070 0 1070 -460 0 -460 0 0
-1070z"/>
<path d="M0 755 l0 -755 460 0 460 0 0 755 0 755 -460 0 -460 0 0 -755z"/>
</g>
</svg>
