<?xml version="1.0" standalone="no"?>
<!DOCTYPE svg PUBLIC "-//W3C//DTD SVG 20010904//EN"
 "http://www.w3.org/TR/2001/REC-SVG-20010904/DTD/svg10.dtd">
<svg version="1.0" xmlns="http://www.w3.org/2000/svg"
 width="664.000000pt" height="598.000000pt" viewBox="0 0 664.000000 598.000000"
 preserveAspectRatio="xMidYMid meet">
<metadata>
Created by potrace 1.16, written by Peter Selinger 2001-2019
</metadata>
<g transform="translate(0.000000,598.000000) scale(0.100000,-0.100000)"
fill="#000000" stroke="none">
<path d="M2680 5969 c-897 -97 -1686 -578 -2187 -1332 -437 -658 -593 -1485
-427 -2270 118 -560 402 -1082 810 -1491 468 -469 1054 -758 1725 -853 193
-27 625 -24 819 5 868 134 1599 599 2076 1322 452 685 601 1554 404 2354 -64
261 -97 332 -177 385 -138 92 -324 45 -398 -100 -43 -83 -42 -127 3 -286 77
-266 105 -463 104 -723 -2 -551 -184 -1068 -532 -1512 -80 -102 -258 -282
-364 -368 -461 -373 -1035 -567 -1621 -547 -357 13 -654 85 -970 236 -656 314
-1139 900 -1315 1595 -58 232 -74 357 -74 601 -1 400 72 721 243 1070 126 256
251 434 446 634 373 382 819 618 1346 711 158 28 486 38 651 21 363 -39 737
-169 1050 -364 56 -35 121 -70 142 -77 52 -17 151 -8 202 18 60 31 120 101
138 163 20 66 20 102 0 168 -22 76 -80 133 -221 217 -348 210 -699 339 -1108
405 -104 17 -185 22 -405 24 -151 2 -313 -1 -360 -6z"/>
<path d="M6223 5566 c-97 -31 -506 -258 -757 -419 -869 -555 -1708 -1373
-2326 -2267 -51 -74 -97 -139 -101 -143 -4 -5 -204 206 -444 470 -240 263
-453 492 -472 510 -63 57 -118 77 -213 77 -67 0 -94 -5 -130 -22 -74 -36 -117
-78 -152 -149 -29 -59 -33 -77 -32 -144 0 -62 6 -87 27 -130 20 -40 219 -264
772 -869 411 -448 749 -816 753 -817 4 -2 52 81 107 184 169 317 297 521 507
810 390 538 918 1095 1423 1503 377 304 749 548 1165 763 172 89 227 133 262
211 32 72 32 191 0 261 -29 64 -83 120 -147 153 -61 31 -176 40 -242 18z"/>
</g>
</svg>
