<?xml version="1.0" standalone="no"?>
<!DOCTYPE svg PUBLIC "-//W3C//DTD SVG 20010904//EN"
 "http://www.w3.org/TR/2001/REC-SVG-20010904/DTD/svg10.dtd">
<svg version="1.0" xmlns="http://www.w3.org/2000/svg"
 width="512.000000pt" height="512.000000pt" viewBox="0 0 512.000000 512.000000"
 preserveAspectRatio="xMidYMid meet">

<g transform="translate(0.000000,512.000000) scale(0.100000,-0.100000)"
fill="#000000" stroke="none">
<path d="M1813 4055 l-108 -215 -212 0 -213 0 0 105 0 105 -215 0 -215 0 0
-105 0 -105 -117 0 c-65 0 -135 -5 -156 -11 -47 -13 -102 -60 -128 -110 -19
-37 -19 -71 -19 -1369 0 -1178 2 -1335 15 -1368 20 -47 50 -78 100 -105 l40
-22 1975 0 1975 0 40 22 c50 27 80 58 100 105 13 33 15 190 15 1368 0 1290 -1
1332 -19 1368 -25 48 -66 87 -113 106 -32 14 -113 16 -590 16 l-553 0 -108
215 -107 215 -640 0 -640 0 -107 -215z m938 -660 c408 -71 738 -374 840 -773
147 -575 -194 -1156 -770 -1309 -84 -23 -117 -26 -256 -26 -179 -1 -247 11
-395 67 -312 116 -554 387 -640 714 -130 492 100 1011 546 1231 92 45 183 76
280 95 93 19 292 19 395 1z m1421 -21 c129 -90 123 -290 -11 -361 -87 -45
-215 -24 -274 46 -86 103 -51 277 68 333 63 29 161 21 217 -18z"/>
<path d="M2189 2755 c-72 -26 -116 -54 -162 -104 -187 -200 -121 -486 164
-715 90 -72 225 -160 314 -203 l55 -27 88 43 c197 97 379 243 460 370 67 103
86 162 86 271 1 83 -3 102 -26 153 -38 80 -114 158 -191 193 -114 52 -292 44
-377 -17 l-41 -30 -34 21 c-90 56 -249 77 -336 45z"/>
</g>
</svg>
