<?xml version="1.0" standalone="no"?>
<!DOCTYPE svg PUBLIC "-//W3C//DTD SVG 20010904//EN"
 "http://www.w3.org/TR/2001/REC-SVG-20010904/DTD/svg10.dtd">
<svg version="1.0" xmlns="http://www.w3.org/2000/svg"
 width="900.000000pt" height="512.000000pt" viewBox="0 0 900.000000 512.000000"
 preserveAspectRatio="xMidYMid meet">

<g transform="translate(0.000000,512.000000) scale(0.100000,-0.100000)"
fill="#000000" stroke="none">
<path d="M1961 4257 c19 -15 918 -756 1779 -1467 355 -293 663 -541 685 -551
51 -24 109 -24 161 0 23 11 365 286 760 612 396 326 940 775 1209 997 270 223
492 409 493 413 2 5 -1127 9 -2550 9 -2009 -1 -2550 -3 -2537 -13z"/>
<path d="M1940 2580 c0 -781 2 -1420 5 -1420 3 0 242 192 532 426 291 235 680
549 865 698 185 149 337 273 337 276 1 3 -43 42 -96 86 -54 44 -446 367 -870
717 l-773 636 0 -1419z"/>
<path d="M6675 3672 c-209 -172 -599 -494 -867 -715 l-488 -402 23 -21 c45
-44 1709 -1375 1713 -1371 2 2 3 638 2 1413 l-3 1410 -380 -314z"/>
<path d="M3300 1979 c-300 -242 -728 -589 -952 -770 -290 -234 -406 -333 -402
-344 5 -13 299 -15 2557 -13 1936 2 2551 6 2554 15 2 6 -210 184 -473 395
-1202 966 -1429 1148 -1434 1148 -3 0 -95 -74 -205 -165 -121 -100 -225 -178
-265 -198 -61 -30 -71 -32 -170 -32 -156 1 -174 10 -435 225 -121 99 -222 180
-225 180 -3 0 -250 -199 -550 -441z"/>
</g>
</svg>
