<svg xmlns="http://www.w3.org/2000/svg" viewBox="0 0 79.94 220.45"><defs><style>.cls-1{fill:#ccc;}</style></defs><title>Asset 10</title><g id="Layer_2" data-name="Layer 2"><g id="главная"><g id="header"><path class="cls-1" d="M19.55,0c.1,1.08.11,2.15.13,3.23s0,2.15-.13,3.23c-.1-1.08-.11-2.16-.12-3.23S19.45,1.08,19.55,0Z"/><path class="cls-1" d="M16.34,2.9c1.07-.1,2.14-.11,3.21-.12s2.14,0,3.21.12C21.69,3,20.62,3,19.55,3S17.41,3,16.34,2.9Z"/><path class="cls-1" d="M27.72,0c.1,1.08.11,2.15.12,3.23s0,2.15-.12,3.23c-.1-1.08-.11-2.16-.13-3.23S27.62,1.08,27.72,0Z"/><path class="cls-1" d="M24.51,2.9c1.07-.1,2.14-.11,3.21-.12s2.14,0,3.21.12C29.86,3,28.79,3,27.72,3S25.58,3,24.51,2.9Z"/><path class="cls-1" d="M35.89,0C36,1.08,36,2.15,36,3.23s0,2.15-.12,3.23c-.11-1.08-.11-2.16-.13-3.23S35.79,1.08,35.89,0Z"/><path class="cls-1" d="M32.67,2.9c1.07-.1,2.15-.11,3.22-.12s2.14,0,3.21.12C38,3,37,3,35.89,3S33.74,3,32.67,2.9Z"/><path class="cls-1" d="M44.06,0c.1,1.08.11,2.15.12,3.23s0,2.15-.12,3.23C44,5.38,44,4.3,43.93,3.23S44,1.08,44.06,0Z"/><path class="cls-1" d="M40.84,2.9c1.07-.1,2.14-.11,3.21-.12s2.15,0,3.22.12C46.2,3,45.13,3,44.05,3S41.91,3,40.84,2.9Z"/><path class="cls-1" d="M52.23,0c.1,1.08.11,2.15.12,3.23s0,2.15-.12,3.23c-.11-1.08-.12-2.16-.13-3.23S52.12,1.08,52.23,0Z"/><path class="cls-1" d="M49,2.9c1.07-.1,2.14-.11,3.21-.12s2.14,0,3.21.12C54.36,3,53.29,3,52.22,3S50.08,3,49,2.9Z"/><path class="cls-1" d="M60.39,0c.11,1.08.11,2.15.13,3.23s0,2.15-.13,3.23c-.1-1.08-.11-2.16-.12-3.23S60.29,1.08,60.39,0Z"/><path class="cls-1" d="M57.18,2.9c1.07-.1,2.14-.11,3.21-.12s2.14,0,3.21.12C62.53,3,61.46,3,60.39,3S58.25,3,57.18,2.9Z"/><path class="cls-1" d="M68.56,0c.11,1.08.11,2.15.13,3.23s0,2.15-.13,3.23c-.1-1.08-.11-2.16-.12-3.23S68.46,1.08,68.56,0Z"/><path class="cls-1" d="M65.35,2.9c1.07-.1,2.14-.11,3.21-.12s2.14,0,3.21.12C70.7,3,69.63,3,68.56,3S66.42,3,65.35,2.9Z"/><path class="cls-1" d="M76.73,0c.1,1.08.11,2.15.13,3.23s0,2.15-.13,3.23c-.1-1.08-.11-2.16-.12-3.23S76.63,1.08,76.73,0Z"/><path class="cls-1" d="M73.52,2.9c1.07-.1,2.14-.11,3.21-.12s2.14,0,3.21.12C78.87,3,77.8,3,76.73,3S74.59,3,73.52,2.9Z"/><path class="cls-1" d="M19.55,8.56c.1,1.08.11,2.15.13,3.23s0,2.15-.13,3.23c-.1-1.08-.11-2.16-.12-3.23S19.45,9.64,19.55,8.56Z"/><path class="cls-1" d="M16.34,11.46c1.07-.1,2.14-.11,3.21-.12s2.14,0,3.21.12c-1.07.11-2.14.11-3.21.13S17.41,11.56,16.34,11.46Z"/><path class="cls-1" d="M27.72,8.56c.1,1.08.11,2.15.12,3.23s0,2.15-.12,3.23c-.1-1.08-.11-2.16-.13-3.23S27.62,9.64,27.72,8.56Z"/><path class="cls-1" d="M24.51,11.46c1.07-.1,2.14-.11,3.21-.12s2.14,0,3.21.12c-1.07.11-2.14.11-3.21.13S25.58,11.56,24.51,11.46Z"/><path class="cls-1" d="M35.89,8.56c.1,1.08.11,2.15.12,3.23s0,2.15-.12,3.23c-.11-1.08-.11-2.16-.13-3.23S35.79,9.64,35.89,8.56Z"/><path class="cls-1" d="M32.67,11.46c1.07-.1,2.15-.11,3.22-.12s2.14,0,3.21.12c-1.07.11-2.14.11-3.21.13S33.74,11.56,32.67,11.46Z"/><path class="cls-1" d="M44.06,8.56c.1,1.08.11,2.15.12,3.23s0,2.15-.12,3.23c-.11-1.08-.11-2.16-.13-3.23S44,9.64,44.06,8.56Z"/><path class="cls-1" d="M40.84,11.46c1.07-.1,2.14-.11,3.21-.12s2.15,0,3.22.12c-1.07.11-2.14.11-3.22.13S41.91,11.56,40.84,11.46Z"/><path class="cls-1" d="M52.23,8.56c.1,1.08.11,2.15.12,3.23s0,2.15-.12,3.23c-.11-1.08-.12-2.16-.13-3.23S52.12,9.64,52.23,8.56Z"/><path class="cls-1" d="M49,11.46c1.07-.1,2.14-.11,3.21-.12s2.14,0,3.21.12c-1.07.11-2.14.11-3.21.13S50.08,11.56,49,11.46Z"/><path class="cls-1" d="M60.39,8.56c.11,1.08.11,2.15.13,3.23s0,2.15-.13,3.23c-.1-1.08-.11-2.16-.12-3.23S60.29,9.64,60.39,8.56Z"/><path class="cls-1" d="M57.18,11.46c1.07-.1,2.14-.11,3.21-.12s2.14,0,3.21.12c-1.07.11-2.14.11-3.21.13S58.25,11.56,57.18,11.46Z"/><path class="cls-1" d="M68.56,8.56c.11,1.08.11,2.15.13,3.23s0,2.15-.13,3.23c-.1-1.08-.11-2.16-.12-3.23S68.46,9.64,68.56,8.56Z"/><path class="cls-1" d="M65.35,11.46c1.07-.1,2.14-.11,3.21-.12s2.14,0,3.21.12c-1.07.11-2.14.11-3.21.13S66.42,11.56,65.35,11.46Z"/><path class="cls-1" d="M76.73,8.56c.1,1.08.11,2.15.13,3.23s0,2.15-.13,3.23c-.1-1.08-.11-2.16-.12-3.23S76.63,9.64,76.73,8.56Z"/><path class="cls-1" d="M73.52,11.46c1.07-.1,2.14-.11,3.21-.12s2.14,0,3.21.12c-1.07.11-2.14.11-3.21.13S74.59,11.56,73.52,11.46Z"/><path class="cls-1" d="M19.55,17.12c.1,1.08.11,2.15.13,3.23s0,2.15-.13,3.23c-.1-1.08-.11-2.16-.12-3.23S19.45,18.2,19.55,17.12Z"/><path class="cls-1" d="M16.34,20c1.07-.1,2.14-.11,3.21-.12s2.14,0,3.21.12c-1.07.11-2.14.11-3.21.13S17.41,20.12,16.34,20Z"/><path class="cls-1" d="M27.72,17.12c.1,1.08.11,2.15.12,3.23s0,2.15-.12,3.23c-.1-1.08-.11-2.16-.13-3.23S27.62,18.2,27.72,17.12Z"/><path class="cls-1" d="M24.51,20c1.07-.1,2.14-.11,3.21-.12s2.14,0,3.21.12c-1.07.11-2.14.11-3.21.13S25.58,20.12,24.51,20Z"/><path class="cls-1" d="M35.89,17.12c.1,1.08.11,2.15.12,3.23s0,2.15-.12,3.23c-.11-1.08-.11-2.16-.13-3.23S35.79,18.2,35.89,17.12Z"/><path class="cls-1" d="M32.67,20c1.07-.1,2.15-.11,3.22-.12s2.14,0,3.21.12c-1.07.11-2.14.11-3.21.13S33.74,20.12,32.67,20Z"/><path class="cls-1" d="M44.06,17.12c.1,1.08.11,2.15.12,3.23s0,2.15-.12,3.23c-.11-1.08-.11-2.16-.13-3.23S44,18.2,44.06,17.12Z"/><path class="cls-1" d="M40.84,20c1.07-.1,2.14-.11,3.21-.12s2.15,0,3.22.12c-1.07.11-2.14.11-3.22.13S41.91,20.12,40.84,20Z"/><path class="cls-1" d="M52.23,17.12c.1,1.08.11,2.15.12,3.23s0,2.15-.12,3.23c-.11-1.08-.12-2.16-.13-3.23S52.12,18.2,52.23,17.12Z"/><path class="cls-1" d="M49,20c1.07-.1,2.14-.11,3.21-.12s2.14,0,3.21.12c-1.07.11-2.14.11-3.21.13S50.08,20.12,49,20Z"/><path class="cls-1" d="M60.39,17.12c.11,1.08.11,2.15.13,3.23s0,2.15-.13,3.23c-.1-1.08-.11-2.16-.12-3.23S60.29,18.2,60.39,17.12Z"/><path class="cls-1" d="M57.18,20c1.07-.1,2.14-.11,3.21-.12s2.14,0,3.21.12c-1.07.11-2.14.11-3.21.13S58.25,20.12,57.18,20Z"/><path class="cls-1" d="M68.56,17.12c.11,1.08.11,2.15.13,3.23s0,2.15-.13,3.23c-.1-1.08-.11-2.16-.12-3.23S68.46,18.2,68.56,17.12Z"/><path class="cls-1" d="M65.35,20c1.07-.1,2.14-.11,3.21-.12s2.14,0,3.21.12c-1.07.11-2.14.11-3.21.13S66.42,20.12,65.35,20Z"/><path class="cls-1" d="M76.73,17.12c.1,1.08.11,2.15.13,3.23s0,2.15-.13,3.23c-.1-1.08-.11-2.16-.12-3.23S76.63,18.2,76.73,17.12Z"/><path class="cls-1" d="M73.52,20c1.07-.1,2.14-.11,3.21-.12s2.14,0,3.21.12c-1.07.11-2.14.11-3.21.13S74.59,20.12,73.52,20Z"/><path class="cls-1" d="M19.55,25.68c.1,1.08.11,2.15.13,3.23s0,2.15-.13,3.23c-.1-1.08-.11-2.16-.12-3.23S19.45,26.76,19.55,25.68Z"/><path class="cls-1" d="M16.34,28.58c1.07-.1,2.14-.11,3.21-.12s2.14,0,3.21.12c-1.07.11-2.14.11-3.21.13S17.41,28.68,16.34,28.58Z"/><path class="cls-1" d="M27.72,25.68c.1,1.08.11,2.15.12,3.23s0,2.15-.12,3.23c-.1-1.08-.11-2.16-.13-3.23S27.62,26.76,27.72,25.68Z"/><path class="cls-1" d="M24.51,28.58c1.07-.1,2.14-.11,3.21-.12s2.14,0,3.21.12c-1.07.11-2.14.11-3.21.13S25.58,28.68,24.51,28.58Z"/><path class="cls-1" d="M35.89,25.68c.1,1.08.11,2.15.12,3.23s0,2.15-.12,3.23c-.11-1.08-.11-2.16-.13-3.23S35.79,26.76,35.89,25.68Z"/><path class="cls-1" d="M32.67,28.58c1.07-.1,2.15-.11,3.22-.12s2.14,0,3.21.12c-1.07.11-2.14.11-3.21.13S33.74,28.68,32.67,28.58Z"/><path class="cls-1" d="M44.06,25.68c.1,1.08.11,2.15.12,3.23s0,2.15-.12,3.23C44,31.06,44,30,43.93,28.91S44,26.76,44.06,25.68Z"/><path class="cls-1" d="M40.84,28.58c1.07-.1,2.14-.11,3.21-.12s2.15,0,3.22.12c-1.07.11-2.14.11-3.22.13S41.91,28.68,40.84,28.58Z"/><path class="cls-1" d="M52.23,25.68c.1,1.08.11,2.15.12,3.23s0,2.15-.12,3.23c-.11-1.08-.12-2.16-.13-3.23S52.12,26.76,52.23,25.68Z"/><path class="cls-1" d="M49,28.58c1.07-.1,2.14-.11,3.21-.12s2.14,0,3.21.12c-1.07.11-2.14.11-3.21.13S50.08,28.68,49,28.58Z"/><path class="cls-1" d="M60.39,25.68c.11,1.08.11,2.15.13,3.23s0,2.15-.13,3.23c-.1-1.08-.11-2.16-.12-3.23S60.29,26.76,60.39,25.68Z"/><path class="cls-1" d="M57.18,28.58c1.07-.1,2.14-.11,3.21-.12s2.14,0,3.21.12c-1.07.11-2.14.11-3.21.13S58.25,28.68,57.18,28.58Z"/><path class="cls-1" d="M68.56,25.68c.11,1.08.11,2.15.13,3.23s0,2.15-.13,3.23c-.1-1.08-.11-2.16-.12-3.23S68.46,26.76,68.56,25.68Z"/><path class="cls-1" d="M65.35,28.58c1.07-.1,2.14-.11,3.21-.12s2.14,0,3.21.12c-1.07.11-2.14.11-3.21.13S66.42,28.68,65.35,28.58Z"/><path class="cls-1" d="M76.73,25.68c.1,1.08.11,2.15.13,3.23s0,2.15-.13,3.23c-.1-1.08-.11-2.16-.12-3.23S76.63,26.76,76.73,25.68Z"/><path class="cls-1" d="M73.52,28.58c1.07-.1,2.14-.11,3.21-.12s2.14,0,3.21.12c-1.07.11-2.14.11-3.21.13S74.59,28.68,73.52,28.58Z"/><path class="cls-1" d="M19.55,34.24c.1,1.08.11,2.15.13,3.23s0,2.15-.13,3.23c-.1-1.08-.11-2.16-.12-3.23S19.45,35.32,19.55,34.24Z"/><path class="cls-1" d="M16.34,37.14c1.07-.1,2.14-.11,3.21-.12s2.14,0,3.21.12c-1.07.11-2.14.11-3.21.13S17.41,37.24,16.34,37.14Z"/><path class="cls-1" d="M27.72,34.24c.1,1.08.11,2.15.12,3.23s0,2.15-.12,3.23c-.1-1.08-.11-2.16-.13-3.23S27.62,35.32,27.72,34.24Z"/><path class="cls-1" d="M24.51,37.14c1.07-.1,2.14-.11,3.21-.12s2.14,0,3.21.12c-1.07.11-2.14.11-3.21.13S25.58,37.24,24.51,37.14Z"/><path class="cls-1" d="M35.89,34.24c.1,1.08.11,2.15.12,3.23s0,2.15-.12,3.23c-.11-1.08-.11-2.16-.13-3.23S35.79,35.32,35.89,34.24Z"/><path class="cls-1" d="M32.67,37.14c1.07-.1,2.15-.11,3.22-.12s2.14,0,3.21.12c-1.07.11-2.14.11-3.21.13S33.74,37.24,32.67,37.14Z"/><path class="cls-1" d="M44.06,34.24c.1,1.08.11,2.15.12,3.23s0,2.15-.12,3.23c-.11-1.08-.11-2.16-.13-3.23S44,35.32,44.06,34.24Z"/><path class="cls-1" d="M40.84,37.14C41.91,37,43,37,44.05,37s2.15,0,3.22.12c-1.07.11-2.14.11-3.22.13S41.91,37.24,40.84,37.14Z"/><path class="cls-1" d="M52.23,34.24c.1,1.08.11,2.15.12,3.23s0,2.15-.12,3.23c-.11-1.08-.12-2.16-.13-3.23S52.12,35.32,52.23,34.24Z"/><path class="cls-1" d="M49,37.14c1.07-.1,2.14-.11,3.21-.12s2.14,0,3.21.12c-1.07.11-2.14.11-3.21.13S50.08,37.24,49,37.14Z"/><path class="cls-1" d="M60.39,34.24c.11,1.08.11,2.15.13,3.23s0,2.15-.13,3.23c-.1-1.08-.11-2.16-.12-3.23S60.29,35.32,60.39,34.24Z"/><path class="cls-1" d="M57.18,37.14c1.07-.1,2.14-.11,3.21-.12s2.14,0,3.21.12c-1.07.11-2.14.11-3.21.13S58.25,37.24,57.18,37.14Z"/><path class="cls-1" d="M68.56,34.24c.11,1.08.11,2.15.13,3.23s0,2.15-.13,3.23c-.1-1.08-.11-2.16-.12-3.23S68.46,35.32,68.56,34.24Z"/><path class="cls-1" d="M65.35,37.14c1.07-.1,2.14-.11,3.21-.12s2.14,0,3.21.12c-1.07.11-2.14.11-3.21.13S66.42,37.24,65.35,37.14Z"/><path class="cls-1" d="M76.73,34.24c.1,1.08.11,2.15.13,3.23s0,2.15-.13,3.23c-.1-1.08-.11-2.16-.12-3.23S76.63,35.32,76.73,34.24Z"/><path class="cls-1" d="M73.52,37.14c1.07-.1,2.14-.11,3.21-.12s2.14,0,3.21.12c-1.07.11-2.14.11-3.21.13S74.59,37.24,73.52,37.14Z"/><path class="cls-1" d="M19.55,42.8c.1,1.08.11,2.15.13,3.23s0,2.15-.13,3.23c-.1-1.08-.11-2.16-.12-3.23S19.45,43.88,19.55,42.8Z"/><path class="cls-1" d="M16.34,45.7c1.07-.1,2.14-.11,3.21-.12s2.14,0,3.21.12c-1.07.1-2.14.11-3.21.13S17.41,45.8,16.34,45.7Z"/><path class="cls-1" d="M27.72,42.8c.1,1.08.11,2.15.12,3.23s0,2.15-.12,3.23c-.1-1.08-.11-2.16-.13-3.23S27.62,43.88,27.72,42.8Z"/><path class="cls-1" d="M24.51,45.7c1.07-.1,2.14-.11,3.21-.12s2.14,0,3.21.12c-1.07.1-2.14.11-3.21.13S25.58,45.8,24.51,45.7Z"/><path class="cls-1" d="M35.89,42.8C36,43.88,36,45,36,46s0,2.15-.12,3.23c-.11-1.08-.11-2.16-.13-3.23S35.79,43.88,35.89,42.8Z"/><path class="cls-1" d="M32.67,45.7c1.07-.1,2.15-.11,3.22-.12s2.14,0,3.21.12c-1.07.1-2.14.11-3.21.13S33.74,45.8,32.67,45.7Z"/><path class="cls-1" d="M44.06,42.8c.1,1.08.11,2.15.12,3.23s0,2.15-.12,3.23C44,48.18,44,47.1,43.93,46S44,43.88,44.06,42.8Z"/><path class="cls-1" d="M40.84,45.7c1.07-.1,2.14-.11,3.21-.12s2.15,0,3.22.12c-1.07.1-2.14.11-3.22.13S41.91,45.8,40.84,45.7Z"/><path class="cls-1" d="M52.23,42.8c.1,1.08.11,2.15.12,3.23s0,2.15-.12,3.23c-.11-1.08-.12-2.16-.13-3.23S52.12,43.88,52.23,42.8Z"/><path class="cls-1" d="M49,45.7c1.07-.1,2.14-.11,3.21-.12s2.14,0,3.21.12c-1.07.1-2.14.11-3.21.13S50.08,45.8,49,45.7Z"/><path class="cls-1" d="M60.39,42.8c.11,1.08.11,2.15.13,3.23s0,2.15-.13,3.23c-.1-1.08-.11-2.16-.12-3.23S60.29,43.88,60.39,42.8Z"/><path class="cls-1" d="M57.18,45.7c1.07-.1,2.14-.11,3.21-.12s2.14,0,3.21.12c-1.07.1-2.14.11-3.21.13S58.25,45.8,57.18,45.7Z"/><path class="cls-1" d="M68.56,42.8c.11,1.08.11,2.15.13,3.23s0,2.15-.13,3.23c-.1-1.08-.11-2.16-.12-3.23S68.46,43.88,68.56,42.8Z"/><path class="cls-1" d="M65.35,45.7c1.07-.1,2.14-.11,3.21-.12s2.14,0,3.21.12c-1.07.1-2.14.11-3.21.13S66.42,45.8,65.35,45.7Z"/><path class="cls-1" d="M76.73,42.8c.1,1.08.11,2.15.13,3.23s0,2.15-.13,3.23c-.1-1.08-.11-2.16-.12-3.23S76.63,43.88,76.73,42.8Z"/><path class="cls-1" d="M73.52,45.7c1.07-.1,2.14-.11,3.21-.12s2.14,0,3.21.12c-1.07.1-2.14.11-3.21.13S74.59,45.8,73.52,45.7Z"/><path class="cls-1" d="M19.55,51.36c.1,1.07.11,2.15.13,3.23s0,2.15-.13,3.23c-.1-1.08-.11-2.16-.12-3.23S19.45,52.43,19.55,51.36Z"/><path class="cls-1" d="M16.34,54.26c1.07-.1,2.14-.11,3.21-.12s2.14,0,3.21.12c-1.07.1-2.14.11-3.21.13S17.41,54.36,16.34,54.26Z"/><path class="cls-1" d="M27.72,51.36c.1,1.07.11,2.15.12,3.23s0,2.15-.12,3.23c-.1-1.08-.11-2.16-.13-3.23S27.62,52.43,27.72,51.36Z"/><path class="cls-1" d="M24.51,54.26c1.07-.1,2.14-.11,3.21-.12s2.14,0,3.21.12c-1.07.1-2.14.11-3.21.13S25.58,54.36,24.51,54.26Z"/><path class="cls-1" d="M35.89,51.36c.1,1.07.11,2.15.12,3.23s0,2.15-.12,3.23c-.11-1.08-.11-2.16-.13-3.23S35.79,52.43,35.89,51.36Z"/><path class="cls-1" d="M32.67,54.26c1.07-.1,2.15-.11,3.22-.12s2.14,0,3.21.12c-1.07.1-2.14.11-3.21.13S33.74,54.36,32.67,54.26Z"/><path class="cls-1" d="M44.06,51.36c.1,1.07.11,2.15.12,3.23s0,2.15-.12,3.23c-.11-1.08-.11-2.16-.13-3.23S44,52.43,44.06,51.36Z"/><path class="cls-1" d="M40.84,54.26c1.07-.1,2.14-.11,3.21-.12s2.15,0,3.22.12c-1.07.1-2.14.11-3.22.13S41.91,54.36,40.84,54.26Z"/><path class="cls-1" d="M52.23,51.36c.1,1.07.11,2.15.12,3.23s0,2.15-.12,3.23c-.11-1.08-.12-2.16-.13-3.23S52.12,52.43,52.23,51.36Z"/><path class="cls-1" d="M49,54.26c1.07-.1,2.14-.11,3.21-.12s2.14,0,3.21.12c-1.07.1-2.14.11-3.21.13S50.08,54.36,49,54.26Z"/><path class="cls-1" d="M60.39,51.65c.11,1,.11,2,.13,2.94s0,2-.13,2.94c-.1-1-.11-2-.12-2.94S60.29,52.63,60.39,51.65Z"/><path class="cls-1" d="M57.18,54.29c1.07-.1,2.14-.11,3.21-.12s2.14,0,3.21.12c-1.07.1-2.14.11-3.21.12S58.25,54.39,57.18,54.29Z"/><path class="cls-1" d="M68.56,51.36c.11,1.07.11,2.15.13,3.23s0,2.15-.13,3.23c-.1-1.08-.11-2.16-.12-3.23S68.46,52.43,68.56,51.36Z"/><path class="cls-1" d="M65.35,54.26c1.07-.1,2.14-.11,3.21-.12s2.14,0,3.21.12c-1.07.1-2.14.11-3.21.13S66.42,54.36,65.35,54.26Z"/><path class="cls-1" d="M76.73,51.36c.1,1.07.11,2.15.13,3.23s0,2.15-.13,3.23c-.1-1.08-.11-2.16-.12-3.23S76.63,52.43,76.73,51.36Z"/><path class="cls-1" d="M73.52,54.26c1.07-.1,2.14-.11,3.21-.12s2.14,0,3.21.12c-1.07.1-2.14.11-3.21.13S74.59,54.36,73.52,54.26Z"/><path class="cls-1" d="M19.55,59.92c.1,1.07.11,2.15.13,3.23s0,2.15-.13,3.23c-.1-1.08-.11-2.16-.12-3.23S19.45,61,19.55,59.92Z"/><path class="cls-1" d="M16.34,62.82c1.07-.1,2.14-.11,3.21-.12s2.14,0,3.21.12c-1.07.1-2.14.11-3.21.13S17.41,62.92,16.34,62.82Z"/><path class="cls-1" d="M27.72,59.92c.1,1.07.11,2.15.12,3.23s0,2.15-.12,3.23c-.1-1.08-.11-2.16-.13-3.23S27.62,61,27.72,59.92Z"/><path class="cls-1" d="M24.51,62.82c1.07-.1,2.14-.11,3.21-.12s2.14,0,3.21.12c-1.07.1-2.14.11-3.21.13S25.58,62.92,24.51,62.82Z"/><path class="cls-1" d="M35.89,59.92C36,61,36,62.07,36,63.15s0,2.15-.12,3.23c-.11-1.08-.11-2.16-.13-3.23S35.79,61,35.89,59.92Z"/><path class="cls-1" d="M32.67,62.82c1.07-.1,2.15-.11,3.22-.12s2.14,0,3.21.12c-1.07.1-2.14.11-3.21.13S33.74,62.92,32.67,62.82Z"/><path class="cls-1" d="M44.06,59.92c.1,1.07.11,2.15.12,3.23s0,2.15-.12,3.23c-.11-1.08-.11-2.16-.13-3.23S44,61,44.06,59.92Z"/><path class="cls-1" d="M40.84,62.82c1.07-.1,2.14-.11,3.21-.12s2.15,0,3.22.12c-1.07.1-2.14.11-3.22.13S41.91,62.92,40.84,62.82Z"/><path class="cls-1" d="M52.23,59.92c.1,1.07.11,2.15.12,3.23s0,2.15-.12,3.23c-.11-1.08-.12-2.16-.13-3.23S52.12,61,52.23,59.92Z"/><path class="cls-1" d="M49,62.82c1.07-.1,2.14-.11,3.21-.12s2.14,0,3.21.12c-1.07.1-2.14.11-3.21.13S50.08,62.92,49,62.82Z"/><path class="cls-1" d="M60.39,59.92c.11,1.07.11,2.15.13,3.23s0,2.15-.13,3.23c-.1-1.08-.11-2.16-.12-3.23S60.29,61,60.39,59.92Z"/><path class="cls-1" d="M57.18,62.82c1.07-.1,2.14-.11,3.21-.12s2.14,0,3.21.12c-1.07.1-2.14.11-3.21.13S58.25,62.92,57.18,62.82Z"/><path class="cls-1" d="M68.56,59.92c.11,1.07.11,2.15.13,3.23s0,2.15-.13,3.23c-.1-1.08-.11-2.16-.12-3.23S68.46,61,68.56,59.92Z"/><path class="cls-1" d="M65.35,62.82c1.07-.1,2.14-.11,3.21-.12s2.14,0,3.21.12c-1.07.1-2.14.11-3.21.13S66.42,62.92,65.35,62.82Z"/><path class="cls-1" d="M76.73,59.92c.1,1.07.11,2.15.13,3.23s0,2.15-.13,3.23c-.1-1.08-.11-2.16-.12-3.23S76.63,61,76.73,59.92Z"/><path class="cls-1" d="M73.52,62.82c1.07-.1,2.14-.11,3.21-.12s2.14,0,3.21.12c-1.07.1-2.14.11-3.21.13S74.59,62.92,73.52,62.82Z"/><path class="cls-1" d="M19.55,68.48c.1,1.07.11,2.15.13,3.23s0,2.15-.13,3.22c-.1-1.07-.11-2.15-.12-3.22S19.45,69.55,19.55,68.48Z"/><path class="cls-1" d="M16.34,71.38c1.07-.1,2.14-.11,3.21-.12s2.14,0,3.21.12c-1.07.1-2.14.11-3.21.13S17.41,71.48,16.34,71.38Z"/><path class="cls-1" d="M27.72,68.48c.1,1.07.11,2.15.12,3.23s0,2.15-.12,3.22c-.1-1.07-.11-2.15-.13-3.22S27.62,69.55,27.72,68.48Z"/><path class="cls-1" d="M24.51,71.38c1.07-.1,2.14-.11,3.21-.12s2.14,0,3.21.12c-1.07.1-2.14.11-3.21.13S25.58,71.48,24.51,71.38Z"/><path class="cls-1" d="M35.89,68.48c.1,1.07.11,2.15.12,3.23s0,2.15-.12,3.22c-.11-1.07-.11-2.15-.13-3.22S35.79,69.55,35.89,68.48Z"/><path class="cls-1" d="M32.67,71.38c1.07-.1,2.15-.11,3.22-.12s2.14,0,3.21.12c-1.07.1-2.14.11-3.21.13S33.74,71.48,32.67,71.38Z"/><path class="cls-1" d="M44.06,68.48c.1,1.07.11,2.15.12,3.23s0,2.15-.12,3.22c-.11-1.07-.11-2.15-.13-3.22S44,69.55,44.06,68.48Z"/><path class="cls-1" d="M40.84,71.38c1.07-.1,2.14-.11,3.21-.12s2.15,0,3.22.12c-1.07.1-2.14.11-3.22.13S41.91,71.48,40.84,71.38Z"/><path class="cls-1" d="M52.23,68.48c.1,1.07.11,2.15.12,3.23s0,2.15-.12,3.22c-.11-1.07-.12-2.15-.13-3.22S52.12,69.55,52.23,68.48Z"/><path class="cls-1" d="M49,71.38c1.07-.1,2.14-.11,3.21-.12s2.14,0,3.21.12c-1.07.1-2.14.11-3.21.13S50.08,71.48,49,71.38Z"/><path class="cls-1" d="M60.39,68.48c.11,1.07.11,2.15.13,3.23s0,2.15-.13,3.22c-.1-1.07-.11-2.15-.12-3.22S60.29,69.55,60.39,68.48Z"/><path class="cls-1" d="M57.18,71.38c1.07-.1,2.14-.11,3.21-.12s2.14,0,3.21.12c-1.07.1-2.14.11-3.21.13S58.25,71.48,57.18,71.38Z"/><path class="cls-1" d="M68.56,68.48c.11,1.07.11,2.15.13,3.23s0,2.15-.13,3.22c-.1-1.07-.11-2.15-.12-3.22S68.46,69.55,68.56,68.48Z"/><path class="cls-1" d="M65.35,71.38c1.07-.1,2.14-.11,3.21-.12s2.14,0,3.21.12c-1.07.1-2.14.11-3.21.13S66.42,71.48,65.35,71.38Z"/><path class="cls-1" d="M76.73,68.48c.1,1.07.11,2.15.13,3.23s0,2.15-.13,3.22c-.1-1.07-.11-2.15-.12-3.22S76.63,69.55,76.73,68.48Z"/><path class="cls-1" d="M73.52,71.38c1.07-.1,2.14-.11,3.21-.12s2.14,0,3.21.12c-1.07.1-2.14.11-3.21.13S74.59,71.48,73.52,71.38Z"/><path class="cls-1" d="M19.55,77c.1,1.07.11,2.15.13,3.23s0,2.15-.13,3.22c-.1-1.07-.11-2.15-.12-3.22S19.45,78.11,19.55,77Z"/><path class="cls-1" d="M16.34,79.94c1.07-.1,2.14-.11,3.21-.12s2.14,0,3.21.12c-1.07.1-2.14.11-3.21.13S17.41,80,16.34,79.94Z"/><path class="cls-1" d="M27.72,77c.1,1.07.11,2.15.12,3.23s0,2.15-.12,3.22c-.1-1.07-.11-2.15-.13-3.22S27.62,78.11,27.72,77Z"/><path class="cls-1" d="M24.51,79.94c1.07-.1,2.14-.11,3.21-.12s2.14,0,3.21.12c-1.07.1-2.14.11-3.21.13S25.58,80,24.51,79.94Z"/><path class="cls-1" d="M35.89,77c.1,1.07.11,2.15.12,3.23s0,2.15-.12,3.22c-.11-1.07-.11-2.15-.13-3.22S35.79,78.11,35.89,77Z"/><path class="cls-1" d="M32.67,79.94c1.07-.1,2.15-.11,3.22-.12s2.14,0,3.21.12c-1.07.1-2.14.11-3.21.13S33.74,80,32.67,79.94Z"/><path class="cls-1" d="M44.06,77c.1,1.07.11,2.15.12,3.23s0,2.15-.12,3.22c-.11-1.07-.11-2.15-.13-3.22S44,78.11,44.06,77Z"/><path class="cls-1" d="M40.84,79.94c1.07-.1,2.14-.11,3.21-.12s2.15,0,3.22.12c-1.07.1-2.14.11-3.22.13S41.91,80,40.84,79.94Z"/><path class="cls-1" d="M52.23,77c.1,1.07.11,2.15.12,3.23s0,2.15-.12,3.22c-.11-1.07-.12-2.15-.13-3.22S52.12,78.11,52.23,77Z"/><path class="cls-1" d="M49,79.94c1.07-.1,2.14-.11,3.21-.12s2.14,0,3.21.12c-1.07.1-2.14.11-3.21.13S50.08,80,49,79.94Z"/><path class="cls-1" d="M60.39,77c.11,1.07.11,2.15.13,3.23s0,2.15-.13,3.22c-.1-1.07-.11-2.15-.12-3.22S60.29,78.11,60.39,77Z"/><path class="cls-1" d="M57.18,79.94c1.07-.1,2.14-.11,3.21-.12s2.14,0,3.21.12c-1.07.1-2.14.11-3.21.13S58.25,80,57.18,79.94Z"/><path class="cls-1" d="M68.56,77c.11,1.07.11,2.15.13,3.23s0,2.15-.13,3.22c-.1-1.07-.11-2.15-.12-3.22S68.46,78.11,68.56,77Z"/><path class="cls-1" d="M65.35,79.94c1.07-.1,2.14-.11,3.21-.12s2.14,0,3.21.12c-1.07.1-2.14.11-3.21.13S66.42,80,65.35,79.94Z"/><path class="cls-1" d="M76.73,77c.1,1.07.11,2.15.13,3.23s0,2.15-.13,3.22c-.1-1.07-.11-2.15-.12-3.22S76.63,78.11,76.73,77Z"/><path class="cls-1" d="M73.52,79.94c1.07-.1,2.14-.11,3.21-.12s2.14,0,3.21.12c-1.07.1-2.14.11-3.21.13S74.59,80,73.52,79.94Z"/><path class="cls-1" d="M19.55,85.6c.1,1.07.11,2.15.13,3.23s0,2.15-.13,3.22c-.1-1.07-.11-2.15-.12-3.22S19.45,86.67,19.55,85.6Z"/><path class="cls-1" d="M16.34,88.5c1.07-.1,2.14-.11,3.21-.12s2.14,0,3.21.12c-1.07.1-2.14.11-3.21.12S17.41,88.6,16.34,88.5Z"/><path class="cls-1" d="M27.72,85.6c.1,1.07.11,2.15.12,3.23s0,2.15-.12,3.22c-.1-1.07-.11-2.15-.13-3.22S27.62,86.67,27.72,85.6Z"/><path class="cls-1" d="M24.51,88.5c1.07-.1,2.14-.11,3.21-.12s2.14,0,3.21.12c-1.07.1-2.14.11-3.21.12S25.58,88.6,24.51,88.5Z"/><path class="cls-1" d="M35.89,85.6c.1,1.07.11,2.15.12,3.23s0,2.15-.12,3.22c-.11-1.07-.11-2.15-.13-3.22S35.79,86.67,35.89,85.6Z"/><path class="cls-1" d="M32.67,88.5c1.07-.1,2.15-.11,3.22-.12s2.14,0,3.21.12c-1.07.1-2.14.11-3.21.12S33.74,88.6,32.67,88.5Z"/><path class="cls-1" d="M44.06,85.6c.1,1.07.11,2.15.12,3.23s0,2.15-.12,3.22C44,91,44,89.9,43.93,88.83S44,86.67,44.06,85.6Z"/><path class="cls-1" d="M40.84,88.5c1.07-.1,2.14-.11,3.21-.12s2.15,0,3.22.12c-1.07.1-2.14.11-3.22.12S41.91,88.6,40.84,88.5Z"/><path class="cls-1" d="M52.23,85.6c.1,1.07.11,2.15.12,3.23s0,2.15-.12,3.22c-.11-1.07-.12-2.15-.13-3.22S52.12,86.67,52.23,85.6Z"/><path class="cls-1" d="M49,88.5c1.07-.1,2.14-.11,3.21-.12s2.14,0,3.21.12c-1.07.1-2.14.11-3.21.12S50.08,88.6,49,88.5Z"/><path class="cls-1" d="M60.39,85.6c.11,1.07.11,2.15.13,3.23s0,2.15-.13,3.22c-.1-1.07-.11-2.15-.12-3.22S60.29,86.67,60.39,85.6Z"/><path class="cls-1" d="M57.18,88.5c1.07-.1,2.14-.11,3.21-.12s2.14,0,3.21.12c-1.07.1-2.14.11-3.21.12S58.25,88.6,57.18,88.5Z"/><path class="cls-1" d="M68.56,85.6c.11,1.07.11,2.15.13,3.23s0,2.15-.13,3.22c-.1-1.07-.11-2.15-.12-3.22S68.46,86.67,68.56,85.6Z"/><path class="cls-1" d="M65.35,88.5c1.07-.1,2.14-.11,3.21-.12s2.14,0,3.21.12c-1.07.1-2.14.11-3.21.12S66.42,88.6,65.35,88.5Z"/><path class="cls-1" d="M76.73,85.6c.1,1.07.11,2.15.13,3.23s0,2.15-.13,3.22c-.1-1.07-.11-2.15-.12-3.22S76.63,86.67,76.73,85.6Z"/><path class="cls-1" d="M73.52,88.5c1.07-.1,2.14-.11,3.21-.12s2.14,0,3.21.12c-1.07.1-2.14.11-3.21.12S74.59,88.6,73.52,88.5Z"/><path class="cls-1" d="M19.55,94.16c.1,1.07.11,2.15.13,3.23s0,2.15-.13,3.22c-.1-1.07-.11-2.15-.12-3.22S19.45,95.23,19.55,94.16Z"/><path class="cls-1" d="M16.34,97.06c1.07-.1,2.14-.11,3.21-.13s2.14,0,3.21.13c-1.07.1-2.14.11-3.21.12S17.41,97.16,16.34,97.06Z"/><path class="cls-1" d="M27.72,94.16c.1,1.07.11,2.15.12,3.23s0,2.15-.12,3.22c-.1-1.07-.11-2.15-.13-3.22S27.62,95.23,27.72,94.16Z"/><path class="cls-1" d="M24.51,97.06c1.07-.1,2.14-.11,3.21-.13s2.14,0,3.21.13c-1.07.1-2.14.11-3.21.12S25.58,97.16,24.51,97.06Z"/><path class="cls-1" d="M35.89,94.16c.1,1.07.11,2.15.12,3.23s0,2.15-.12,3.22c-.11-1.07-.11-2.15-.13-3.22S35.79,95.23,35.89,94.16Z"/><path class="cls-1" d="M32.67,97.06c1.07-.1,2.15-.11,3.22-.13s2.14,0,3.21.13c-1.07.1-2.14.11-3.21.12S33.74,97.16,32.67,97.06Z"/><path class="cls-1" d="M44.06,94.16c.1,1.07.11,2.15.12,3.23s0,2.15-.12,3.22c-.11-1.07-.11-2.15-.13-3.22S44,95.23,44.06,94.16Z"/><path class="cls-1" d="M40.84,97.06c1.07-.1,2.14-.11,3.21-.13s2.15,0,3.22.13c-1.07.1-2.14.11-3.22.12S41.91,97.16,40.84,97.06Z"/><path class="cls-1" d="M52.23,94.16c.1,1.07.11,2.15.12,3.23s0,2.15-.12,3.22c-.11-1.07-.12-2.15-.13-3.22S52.12,95.23,52.23,94.16Z"/><path class="cls-1" d="M49,97.06c1.07-.1,2.14-.11,3.21-.13s2.14,0,3.21.13c-1.07.1-2.14.11-3.21.12S50.08,97.16,49,97.06Z"/><path class="cls-1" d="M60.39,94.16c.11,1.07.11,2.15.13,3.23s0,2.15-.13,3.22c-.1-1.07-.11-2.15-.12-3.22S60.29,95.23,60.39,94.16Z"/><path class="cls-1" d="M57.18,97.06c1.07-.1,2.14-.11,3.21-.13s2.14,0,3.21.13c-1.07.1-2.14.11-3.21.12S58.25,97.16,57.18,97.06Z"/><path class="cls-1" d="M68.56,94.16c.11,1.07.11,2.15.13,3.23s0,2.15-.13,3.22c-.1-1.07-.11-2.15-.12-3.22S68.46,95.23,68.56,94.16Z"/><path class="cls-1" d="M65.35,97.06c1.07-.1,2.14-.11,3.21-.13s2.14,0,3.21.13c-1.07.1-2.14.11-3.21.12S66.42,97.16,65.35,97.06Z"/><path class="cls-1" d="M76.73,94.16c.1,1.07.11,2.15.13,3.23s0,2.15-.13,3.22c-.1-1.07-.11-2.15-.12-3.22S76.63,95.23,76.73,94.16Z"/><path class="cls-1" d="M73.52,97.06c1.07-.1,2.14-.11,3.21-.13s2.14,0,3.21.13c-1.07.1-2.14.11-3.21.12S74.59,97.16,73.52,97.06Z"/><path class="cls-1" d="M19.55,102.72c.1,1.07.11,2.15.13,3.23s0,2.15-.13,3.22c-.1-1.07-.11-2.15-.12-3.22S19.45,103.79,19.55,102.72Z"/><path class="cls-1" d="M16.34,105.62c1.07-.1,2.14-.11,3.21-.13s2.14,0,3.21.13c-1.07.1-2.14.11-3.21.12S17.41,105.72,16.34,105.62Z"/><path class="cls-1" d="M27.72,102.72c.1,1.07.11,2.15.12,3.23s0,2.15-.12,3.22c-.1-1.07-.11-2.15-.13-3.22S27.62,103.79,27.72,102.72Z"/><path class="cls-1" d="M24.51,105.62c1.07-.1,2.14-.11,3.21-.13s2.14,0,3.21.13c-1.07.1-2.14.11-3.21.12S25.58,105.72,24.51,105.62Z"/><path class="cls-1" d="M35.89,102.72c.1,1.07.11,2.15.12,3.23s0,2.15-.12,3.22c-.11-1.07-.11-2.15-.13-3.22S35.79,103.79,35.89,102.72Z"/><path class="cls-1" d="M32.67,105.62c1.07-.1,2.15-.11,3.22-.13s2.14,0,3.21.13c-1.07.1-2.14.11-3.21.12S33.74,105.72,32.67,105.62Z"/><path class="cls-1" d="M44.06,102.72c.1,1.07.11,2.15.12,3.23s0,2.15-.12,3.22C44,108.1,44,107,43.93,106S44,103.79,44.06,102.72Z"/><path class="cls-1" d="M40.84,105.62c1.07-.1,2.14-.11,3.21-.13s2.15,0,3.22.13c-1.07.1-2.14.11-3.22.12S41.91,105.72,40.84,105.62Z"/><path class="cls-1" d="M52.23,102.72c.1,1.07.11,2.15.12,3.23s0,2.15-.12,3.22c-.11-1.07-.12-2.15-.13-3.22S52.12,103.79,52.23,102.72Z"/><path class="cls-1" d="M49,105.62c1.07-.1,2.14-.11,3.21-.13s2.14,0,3.21.13c-1.07.1-2.14.11-3.21.12S50.08,105.72,49,105.62Z"/><path class="cls-1" d="M60.39,102.72c.11,1.07.11,2.15.13,3.23s0,2.15-.13,3.22c-.1-1.07-.11-2.15-.12-3.22S60.29,103.79,60.39,102.72Z"/><path class="cls-1" d="M57.18,105.62c1.07-.1,2.14-.11,3.21-.13s2.14,0,3.21.13c-1.07.1-2.14.11-3.21.12S58.25,105.72,57.18,105.62Z"/><path class="cls-1" d="M68.56,102.72c.11,1.07.11,2.15.13,3.23s0,2.15-.13,3.22c-.1-1.07-.11-2.15-.12-3.22S68.46,103.79,68.56,102.72Z"/><path class="cls-1" d="M65.35,105.62c1.07-.1,2.14-.11,3.21-.13s2.14,0,3.21.13c-1.07.1-2.14.11-3.21.12S66.42,105.72,65.35,105.62Z"/><path class="cls-1" d="M76.73,102.72c.1,1.07.11,2.15.13,3.23s0,2.15-.13,3.22c-.1-1.07-.11-2.15-.12-3.22S76.63,103.79,76.73,102.72Z"/><path class="cls-1" d="M73.52,105.62c1.07-.1,2.14-.11,3.21-.13s2.14,0,3.21.13c-1.07.1-2.14.11-3.21.12S74.59,105.72,73.52,105.62Z"/><path class="cls-1" d="M19.55,111.28c.1,1.07.11,2.15.13,3.23s0,2.15-.13,3.22c-.1-1.07-.11-2.15-.12-3.22S19.45,112.35,19.55,111.28Z"/><path class="cls-1" d="M16.34,114.18c1.07-.1,2.14-.11,3.21-.13s2.14,0,3.21.13c-1.07.1-2.14.11-3.21.12S17.41,114.28,16.34,114.18Z"/><path class="cls-1" d="M27.72,111.28c.1,1.07.11,2.15.12,3.23s0,2.15-.12,3.22c-.1-1.07-.11-2.15-.13-3.22S27.62,112.35,27.72,111.28Z"/><path class="cls-1" d="M24.51,114.18c1.07-.1,2.14-.11,3.21-.13s2.14,0,3.21.13c-1.07.1-2.14.11-3.21.12S25.58,114.28,24.51,114.18Z"/><path class="cls-1" d="M35.89,111.28c.1,1.07.11,2.15.12,3.23s0,2.15-.12,3.22c-.11-1.07-.11-2.15-.13-3.22S35.79,112.35,35.89,111.28Z"/><path class="cls-1" d="M32.67,114.18c1.07-.1,2.15-.11,3.22-.13s2.14,0,3.21.13c-1.07.1-2.14.11-3.21.12S33.74,114.28,32.67,114.18Z"/><path class="cls-1" d="M44.06,111.28c.1,1.07.11,2.15.12,3.23s0,2.15-.12,3.22c-.11-1.07-.11-2.15-.13-3.22S44,112.35,44.06,111.28Z"/><path class="cls-1" d="M40.84,114.18c1.07-.1,2.14-.11,3.21-.13s2.15,0,3.22.13c-1.07.1-2.14.11-3.22.12S41.91,114.28,40.84,114.18Z"/><path class="cls-1" d="M52.23,111.28c.1,1.07.11,2.15.12,3.23s0,2.15-.12,3.22c-.11-1.07-.12-2.15-.13-3.22S52.12,112.35,52.23,111.28Z"/><path class="cls-1" d="M49,114.18c1.07-.1,2.14-.11,3.21-.13s2.14,0,3.21.13c-1.07.1-2.14.11-3.21.12S50.08,114.28,49,114.18Z"/><path class="cls-1" d="M60.39,111.28c.11,1.07.11,2.15.13,3.23s0,2.15-.13,3.22c-.1-1.07-.11-2.15-.12-3.22S60.29,112.35,60.39,111.28Z"/><path class="cls-1" d="M57.18,114.18c1.07-.1,2.14-.11,3.21-.13s2.14,0,3.21.13c-1.07.1-2.14.11-3.21.12S58.25,114.28,57.18,114.18Z"/><path class="cls-1" d="M68.56,111.28c.11,1.07.11,2.15.13,3.23s0,2.15-.13,3.22c-.1-1.07-.11-2.15-.12-3.22S68.46,112.35,68.56,111.28Z"/><path class="cls-1" d="M65.35,114.18c1.07-.1,2.14-.11,3.21-.13s2.14,0,3.21.13c-1.07.1-2.14.11-3.21.12S66.42,114.28,65.35,114.18Z"/><path class="cls-1" d="M76.73,111.28c.1,1.07.11,2.15.13,3.23s0,2.15-.13,3.22c-.1-1.07-.11-2.15-.12-3.22S76.63,112.35,76.73,111.28Z"/><path class="cls-1" d="M73.52,114.18c1.07-.1,2.14-.11,3.21-.13s2.14,0,3.21.13c-1.07.1-2.14.11-3.21.12S74.59,114.28,73.52,114.18Z"/><path class="cls-1" d="M19.55,119.84c.1,1.07.11,2.15.13,3.23s0,2.15-.13,3.22c-.1-1.07-.11-2.15-.12-3.22S19.45,120.91,19.55,119.84Z"/><path class="cls-1" d="M16.34,122.74c1.07-.1,2.14-.11,3.21-.13s2.14,0,3.21.13c-1.07.1-2.14.11-3.21.12S17.41,122.84,16.34,122.74Z"/><path class="cls-1" d="M27.72,119.84c.1,1.07.11,2.15.12,3.23s0,2.15-.12,3.22c-.1-1.07-.11-2.15-.13-3.22S27.62,120.91,27.72,119.84Z"/><path class="cls-1" d="M24.51,122.74c1.07-.1,2.14-.11,3.21-.13s2.14,0,3.21.13c-1.07.1-2.14.11-3.21.12S25.58,122.84,24.51,122.74Z"/><path class="cls-1" d="M35.89,119.84c.1,1.07.11,2.15.12,3.23s0,2.15-.12,3.22c-.11-1.07-.11-2.15-.13-3.22S35.79,120.91,35.89,119.84Z"/><path class="cls-1" d="M32.67,122.74c1.07-.1,2.15-.11,3.22-.13s2.14,0,3.21.13c-1.07.1-2.14.11-3.21.12S33.74,122.84,32.67,122.74Z"/><path class="cls-1" d="M44.06,119.84c.1,1.07.11,2.15.12,3.23s0,2.15-.12,3.22c-.11-1.07-.11-2.15-.13-3.22S44,120.91,44.06,119.84Z"/><path class="cls-1" d="M40.84,122.74c1.07-.1,2.14-.11,3.21-.13s2.15,0,3.22.13c-1.07.1-2.14.11-3.22.12S41.91,122.84,40.84,122.74Z"/><path class="cls-1" d="M52.23,119.84c.1,1.07.11,2.15.12,3.23s0,2.15-.12,3.22c-.11-1.07-.12-2.15-.13-3.22S52.12,120.91,52.23,119.84Z"/><path class="cls-1" d="M49,122.74c1.07-.1,2.14-.11,3.21-.13s2.14,0,3.21.13c-1.07.1-2.14.11-3.21.12S50.08,122.84,49,122.74Z"/><path class="cls-1" d="M60.39,119.84c.11,1.07.11,2.15.13,3.23s0,2.15-.13,3.22c-.1-1.07-.11-2.15-.12-3.22S60.29,120.91,60.39,119.84Z"/><path class="cls-1" d="M57.18,122.74c1.07-.1,2.14-.11,3.21-.13s2.14,0,3.21.13c-1.07.1-2.14.11-3.21.12S58.25,122.84,57.18,122.74Z"/><path class="cls-1" d="M68.56,119.84c.11,1.07.11,2.15.13,3.23s0,2.15-.13,3.22c-.1-1.07-.11-2.15-.12-3.22S68.46,120.91,68.56,119.84Z"/><path class="cls-1" d="M65.35,122.74c1.07-.1,2.14-.11,3.21-.13s2.14,0,3.21.13c-1.07.1-2.14.11-3.21.12S66.42,122.84,65.35,122.74Z"/><path class="cls-1" d="M76.73,119.84c.1,1.07.11,2.15.13,3.23s0,2.15-.13,3.22c-.1-1.07-.11-2.15-.12-3.22S76.63,120.91,76.73,119.84Z"/><path class="cls-1" d="M73.52,122.74c1.07-.1,2.14-.11,3.21-.13s2.14,0,3.21.13c-1.07.1-2.14.11-3.21.12S74.59,122.84,73.52,122.74Z"/><path class="cls-1" d="M19.55,128.4c.1,1.07.11,2.15.13,3.22s0,2.16-.13,3.23c-.1-1.07-.11-2.15-.12-3.23S19.45,129.47,19.55,128.4Z"/><path class="cls-1" d="M16.34,131.3c1.07-.1,2.14-.11,3.21-.13s2.14,0,3.21.13c-1.07.1-2.14.11-3.21.12S17.41,131.4,16.34,131.3Z"/><path class="cls-1" d="M27.72,128.4c.1,1.07.11,2.15.12,3.22s0,2.16-.12,3.23c-.1-1.07-.11-2.15-.13-3.23S27.62,129.47,27.72,128.4Z"/><path class="cls-1" d="M24.51,131.3c1.07-.1,2.14-.11,3.21-.13s2.14,0,3.21.13c-1.07.1-2.14.11-3.21.12S25.58,131.4,24.51,131.3Z"/><path class="cls-1" d="M35.89,128.4c.1,1.07.11,2.15.12,3.22s0,2.16-.12,3.23c-.11-1.07-.11-2.15-.13-3.23S35.79,129.47,35.89,128.4Z"/><path class="cls-1" d="M32.67,131.3c1.07-.1,2.15-.11,3.22-.13s2.14,0,3.21.13c-1.07.1-2.14.11-3.21.12S33.74,131.4,32.67,131.3Z"/><path class="cls-1" d="M44.06,128.4c.1,1.07.11,2.15.12,3.22s0,2.16-.12,3.23c-.11-1.07-.11-2.15-.13-3.23S44,129.47,44.06,128.4Z"/><path class="cls-1" d="M40.84,131.3c1.07-.1,2.14-.11,3.21-.13s2.15,0,3.22.13c-1.07.1-2.14.11-3.22.12S41.91,131.4,40.84,131.3Z"/><path class="cls-1" d="M52.23,128.4c.1,1.07.11,2.15.12,3.22s0,2.16-.12,3.23c-.11-1.07-.12-2.15-.13-3.23S52.12,129.47,52.23,128.4Z"/><path class="cls-1" d="M49,131.3c1.07-.1,2.14-.11,3.21-.13s2.14,0,3.21.13c-1.07.1-2.14.11-3.21.12S50.08,131.4,49,131.3Z"/><path class="cls-1" d="M60.39,128.4c.11,1.07.11,2.15.13,3.22s0,2.16-.13,3.23c-.1-1.07-.11-2.15-.12-3.23S60.29,129.47,60.39,128.4Z"/><path class="cls-1" d="M57.18,131.3c1.07-.1,2.14-.11,3.21-.13s2.14,0,3.21.13c-1.07.1-2.14.11-3.21.12S58.25,131.4,57.18,131.3Z"/><path class="cls-1" d="M68.56,128.4c.11,1.07.11,2.15.13,3.22s0,2.16-.13,3.23c-.1-1.07-.11-2.15-.12-3.23S68.46,129.47,68.56,128.4Z"/><path class="cls-1" d="M65.35,131.3c1.07-.1,2.14-.11,3.21-.13s2.14,0,3.21.13c-1.07.1-2.14.11-3.21.12S66.42,131.4,65.35,131.3Z"/><path class="cls-1" d="M76.73,128.4c.1,1.07.11,2.15.13,3.22s0,2.16-.13,3.23c-.1-1.07-.11-2.15-.12-3.23S76.63,129.47,76.73,128.4Z"/><path class="cls-1" d="M73.52,131.3c1.07-.1,2.14-.11,3.21-.13s2.14,0,3.21.13c-1.07.1-2.14.11-3.21.12S74.59,131.4,73.52,131.3Z"/><path class="cls-1" d="M19.55,137c.1,1.07.11,2.15.13,3.22s0,2.16-.13,3.23c-.1-1.07-.11-2.15-.12-3.23S19.45,138,19.55,137Z"/><path class="cls-1" d="M16.34,139.86c1.07-.1,2.14-.11,3.21-.13s2.14,0,3.21.13c-1.07.1-2.14.11-3.21.12S17.41,140,16.34,139.86Z"/><path class="cls-1" d="M27.72,137c.1,1.07.11,2.15.12,3.22s0,2.16-.12,3.23c-.1-1.07-.11-2.15-.13-3.23S27.62,138,27.72,137Z"/><path class="cls-1" d="M24.51,139.86c1.07-.1,2.14-.11,3.21-.13s2.14,0,3.21.13c-1.07.1-2.14.11-3.21.12S25.58,140,24.51,139.86Z"/><path class="cls-1" d="M35.89,137c.1,1.07.11,2.15.12,3.22s0,2.16-.12,3.23c-.11-1.07-.11-2.15-.13-3.23S35.79,138,35.89,137Z"/><path class="cls-1" d="M32.67,139.86c1.07-.1,2.15-.11,3.22-.13s2.14,0,3.21.13C38,140,37,140,35.89,140S33.74,140,32.67,139.86Z"/><path class="cls-1" d="M44.06,137c.1,1.07.11,2.15.12,3.22s0,2.16-.12,3.23c-.11-1.07-.11-2.15-.13-3.23S44,138,44.06,137Z"/><path class="cls-1" d="M40.84,139.86c1.07-.1,2.14-.11,3.21-.13s2.15,0,3.22.13c-1.07.1-2.14.11-3.22.12S41.91,140,40.84,139.86Z"/><path class="cls-1" d="M52.23,137c.1,1.07.11,2.15.12,3.22s0,2.16-.12,3.23c-.11-1.07-.12-2.15-.13-3.23S52.12,138,52.23,137Z"/><path class="cls-1" d="M49,139.86c1.07-.1,2.14-.11,3.21-.13s2.14,0,3.21.13c-1.07.1-2.14.11-3.21.12S50.08,140,49,139.86Z"/><path class="cls-1" d="M60.39,137c.11,1.07.11,2.15.13,3.22s0,2.16-.13,3.23c-.1-1.07-.11-2.15-.12-3.23S60.29,138,60.39,137Z"/><path class="cls-1" d="M57.18,139.86c1.07-.1,2.14-.11,3.21-.13s2.14,0,3.21.13c-1.07.1-2.14.11-3.21.12S58.25,140,57.18,139.86Z"/><path class="cls-1" d="M68.56,137c.11,1.07.11,2.15.13,3.22s0,2.16-.13,3.23c-.1-1.07-.11-2.15-.12-3.23S68.46,138,68.56,137Z"/><path class="cls-1" d="M65.35,139.86c1.07-.1,2.14-.11,3.21-.13s2.14,0,3.21.13c-1.07.1-2.14.11-3.21.12S66.42,140,65.35,139.86Z"/><path class="cls-1" d="M76.73,137c.1,1.07.11,2.15.13,3.22s0,2.16-.13,3.23c-.1-1.07-.11-2.15-.12-3.23S76.63,138,76.73,137Z"/><path class="cls-1" d="M73.52,139.86c1.07-.1,2.14-.11,3.21-.13s2.14,0,3.21.13c-1.07.1-2.14.11-3.21.12S74.59,140,73.52,139.86Z"/><path class="cls-1" d="M19.55,145.52c.1,1.07.11,2.15.13,3.22s0,2.16-.13,3.23c-.1-1.07-.11-2.15-.12-3.23S19.45,146.59,19.55,145.52Z"/><path class="cls-1" d="M16.34,148.42c1.07-.1,2.14-.11,3.21-.13s2.14,0,3.21.13c-1.07.1-2.14.11-3.21.12S17.41,148.52,16.34,148.42Z"/><path class="cls-1" d="M27.72,145.52c.1,1.07.11,2.15.12,3.22s0,2.16-.12,3.23c-.1-1.07-.11-2.15-.13-3.23S27.62,146.59,27.72,145.52Z"/><path class="cls-1" d="M24.51,148.42c1.07-.1,2.14-.11,3.21-.13s2.14,0,3.21.13c-1.07.1-2.14.11-3.21.12S25.58,148.52,24.51,148.42Z"/><path class="cls-1" d="M35.89,145.52c.1,1.07.11,2.15.12,3.22s0,2.16-.12,3.23c-.11-1.07-.11-2.15-.13-3.23S35.79,146.59,35.89,145.52Z"/><path class="cls-1" d="M32.67,148.42c1.07-.1,2.15-.11,3.22-.13s2.14,0,3.21.13c-1.07.1-2.14.11-3.21.12S33.74,148.52,32.67,148.42Z"/><path class="cls-1" d="M44.06,145.52c.1,1.07.11,2.15.12,3.22s0,2.16-.12,3.23c-.11-1.07-.11-2.15-.13-3.23S44,146.59,44.06,145.52Z"/><path class="cls-1" d="M40.84,148.42c1.07-.1,2.14-.11,3.21-.13s2.15,0,3.22.13c-1.07.1-2.14.11-3.22.12S41.91,148.52,40.84,148.42Z"/><path class="cls-1" d="M52.23,145.52c.1,1.07.11,2.15.12,3.22s0,2.16-.12,3.23c-.11-1.07-.12-2.15-.13-3.23S52.12,146.59,52.23,145.52Z"/><path class="cls-1" d="M49,148.42c1.07-.1,2.14-.11,3.21-.13s2.14,0,3.21.13c-1.07.1-2.14.11-3.21.12S50.08,148.52,49,148.42Z"/><path class="cls-1" d="M60.39,145.52c.11,1.07.11,2.15.13,3.22s0,2.16-.13,3.23c-.1-1.07-.11-2.15-.12-3.23S60.29,146.59,60.39,145.52Z"/><path class="cls-1" d="M57.18,148.42c1.07-.1,2.14-.11,3.21-.13s2.14,0,3.21.13c-1.07.1-2.14.11-3.21.12S58.25,148.52,57.18,148.42Z"/><path class="cls-1" d="M68.56,145.52c.11,1.07.11,2.15.13,3.22s0,2.16-.13,3.23c-.1-1.07-.11-2.15-.12-3.23S68.46,146.59,68.56,145.52Z"/><path class="cls-1" d="M65.35,148.42c1.07-.1,2.14-.11,3.21-.13s2.14,0,3.21.13c-1.07.1-2.14.11-3.21.12S66.42,148.52,65.35,148.42Z"/><path class="cls-1" d="M76.73,145.52c.1,1.07.11,2.15.13,3.22s0,2.16-.13,3.23c-.1-1.07-.11-2.15-.12-3.23S76.63,146.59,76.73,145.52Z"/><path class="cls-1" d="M73.52,148.42c1.07-.1,2.14-.11,3.21-.13s2.14,0,3.21.13c-1.07.1-2.14.11-3.21.12S74.59,148.52,73.52,148.42Z"/><path class="cls-1" d="M19.55,154.08c.1,1.07.11,2.15.13,3.22s0,2.16-.13,3.23c-.1-1.07-.11-2.15-.12-3.23S19.45,155.15,19.55,154.08Z"/><path class="cls-1" d="M16.34,157c1.07-.1,2.14-.11,3.21-.13s2.14,0,3.21.13c-1.07.1-2.14.11-3.21.12S17.41,157.08,16.34,157Z"/><path class="cls-1" d="M27.72,154.08c.1,1.07.11,2.15.12,3.22s0,2.16-.12,3.23c-.1-1.07-.11-2.15-.13-3.23S27.62,155.15,27.72,154.08Z"/><path class="cls-1" d="M24.51,157c1.07-.1,2.14-.11,3.21-.13s2.14,0,3.21.13c-1.07.1-2.14.11-3.21.12S25.58,157.08,24.51,157Z"/><path class="cls-1" d="M35.89,154.08c.1,1.07.11,2.15.12,3.22s0,2.16-.12,3.23c-.11-1.07-.11-2.15-.13-3.23S35.79,155.15,35.89,154.08Z"/><path class="cls-1" d="M32.67,157c1.07-.1,2.15-.11,3.22-.13s2.14,0,3.21.13c-1.07.1-2.14.11-3.21.12S33.74,157.08,32.67,157Z"/><path class="cls-1" d="M44.06,154.08c.1,1.07.11,2.15.12,3.22s0,2.16-.12,3.23c-.11-1.07-.11-2.15-.13-3.23S44,155.15,44.06,154.08Z"/><path class="cls-1" d="M40.84,157c1.07-.1,2.14-.11,3.21-.13s2.15,0,3.22.13c-1.07.1-2.14.11-3.22.12S41.91,157.08,40.84,157Z"/><path class="cls-1" d="M52.23,154.08c.1,1.07.11,2.15.12,3.22s0,2.16-.12,3.23c-.11-1.07-.12-2.15-.13-3.23S52.12,155.15,52.23,154.08Z"/><path class="cls-1" d="M49,157c1.07-.1,2.14-.11,3.21-.13s2.14,0,3.21.13c-1.07.1-2.14.11-3.21.12S50.08,157.08,49,157Z"/><path class="cls-1" d="M60.39,154.08c.11,1.07.11,2.15.13,3.22s0,2.16-.13,3.23c-.1-1.07-.11-2.15-.12-3.23S60.29,155.15,60.39,154.08Z"/><path class="cls-1" d="M57.18,157c1.07-.1,2.14-.11,3.21-.13s2.14,0,3.21.13c-1.07.1-2.14.11-3.21.12S58.25,157.08,57.18,157Z"/><path class="cls-1" d="M68.56,154.08c.11,1.07.11,2.15.13,3.22s0,2.16-.13,3.23c-.1-1.07-.11-2.15-.12-3.23S68.46,155.15,68.56,154.08Z"/><path class="cls-1" d="M65.35,157c1.07-.1,2.14-.11,3.21-.13s2.14,0,3.21.13c-1.07.1-2.14.11-3.21.12S66.42,157.08,65.35,157Z"/><path class="cls-1" d="M76.73,154.08c.1,1.07.11,2.15.13,3.22s0,2.16-.13,3.23c-.1-1.07-.11-2.15-.12-3.23S76.63,155.15,76.73,154.08Z"/><path class="cls-1" d="M73.52,157c1.07-.1,2.14-.11,3.21-.13s2.14,0,3.21.13c-1.07.1-2.14.11-3.21.12S74.59,157.08,73.52,157Z"/><path class="cls-1" d="M19.55,162.64c.1,1.07.11,2.15.13,3.22s0,2.16-.13,3.23c-.1-1.07-.11-2.15-.12-3.23S19.45,163.71,19.55,162.64Z"/><path class="cls-1" d="M16.34,165.54c1.07-.1,2.14-.11,3.21-.13s2.14,0,3.21.13c-1.07.1-2.14.11-3.21.12S17.41,165.64,16.34,165.54Z"/><path class="cls-1" d="M27.72,162.64c.1,1.07.11,2.15.12,3.22s0,2.16-.12,3.23c-.1-1.07-.11-2.15-.13-3.23S27.62,163.71,27.72,162.64Z"/><path class="cls-1" d="M24.51,165.54c1.07-.1,2.14-.11,3.21-.13s2.14,0,3.21.13c-1.07.1-2.14.11-3.21.12S25.58,165.64,24.51,165.54Z"/><path class="cls-1" d="M35.89,162.64c.1,1.07.11,2.15.12,3.22s0,2.16-.12,3.23c-.11-1.07-.11-2.15-.13-3.23S35.79,163.71,35.89,162.64Z"/><path class="cls-1" d="M32.67,165.54c1.07-.1,2.15-.11,3.22-.13s2.14,0,3.21.13c-1.07.1-2.14.11-3.21.12S33.74,165.64,32.67,165.54Z"/><path class="cls-1" d="M44.06,162.64c.1,1.07.11,2.15.12,3.22s0,2.16-.12,3.23c-.11-1.07-.11-2.15-.13-3.23S44,163.71,44.06,162.64Z"/><path class="cls-1" d="M40.84,165.54c1.07-.1,2.14-.11,3.21-.13s2.15,0,3.22.13c-1.07.1-2.14.11-3.22.12S41.91,165.64,40.84,165.54Z"/><path class="cls-1" d="M52.23,162.64c.1,1.07.11,2.15.12,3.22s0,2.16-.12,3.23c-.11-1.07-.12-2.15-.13-3.23S52.12,163.71,52.23,162.64Z"/><path class="cls-1" d="M49,165.54c1.07-.1,2.14-.11,3.21-.13s2.14,0,3.21.13c-1.07.1-2.14.11-3.21.12S50.08,165.64,49,165.54Z"/><path class="cls-1" d="M60.39,162.64c.11,1.07.11,2.15.13,3.22s0,2.16-.13,3.23c-.1-1.07-.11-2.15-.12-3.23S60.29,163.71,60.39,162.64Z"/><path class="cls-1" d="M57.18,165.54c1.07-.1,2.14-.11,3.21-.13s2.14,0,3.21.13c-1.07.1-2.14.11-3.21.12S58.25,165.64,57.18,165.54Z"/><path class="cls-1" d="M68.56,162.64c.11,1.07.11,2.15.13,3.22s0,2.16-.13,3.23c-.1-1.07-.11-2.15-.12-3.23S68.46,163.71,68.56,162.64Z"/><path class="cls-1" d="M65.35,165.54c1.07-.1,2.14-.11,3.21-.13s2.14,0,3.21.13c-1.07.1-2.14.11-3.21.12S66.42,165.64,65.35,165.54Z"/><path class="cls-1" d="M76.73,162.64c.1,1.07.11,2.15.13,3.22s0,2.16-.13,3.23c-.1-1.07-.11-2.15-.12-3.23S76.63,163.71,76.73,162.64Z"/><path class="cls-1" d="M73.52,165.54c1.07-.1,2.14-.11,3.21-.13s2.14,0,3.21.13c-1.07.1-2.14.11-3.21.12S74.59,165.64,73.52,165.54Z"/><path class="cls-1" d="M19.55,171.2c.1,1.07.11,2.15.13,3.22s0,2.16-.13,3.23c-.1-1.07-.11-2.15-.12-3.23S19.45,172.27,19.55,171.2Z"/><path class="cls-1" d="M16.34,174.1c1.07-.11,2.14-.11,3.21-.13s2.14,0,3.21.13c-1.07.1-2.14.11-3.21.12S17.41,174.2,16.34,174.1Z"/><path class="cls-1" d="M27.72,171.2c.1,1.07.11,2.15.12,3.22s0,2.16-.12,3.23c-.1-1.07-.11-2.15-.13-3.23S27.62,172.27,27.72,171.2Z"/><path class="cls-1" d="M24.51,174.1c1.07-.11,2.14-.11,3.21-.13s2.14,0,3.21.13c-1.07.1-2.14.11-3.21.12S25.58,174.2,24.51,174.1Z"/><path class="cls-1" d="M35.89,171.2c.1,1.07.11,2.15.12,3.22s0,2.16-.12,3.23c-.11-1.07-.11-2.15-.13-3.23S35.79,172.27,35.89,171.2Z"/><path class="cls-1" d="M32.67,174.1c1.07-.11,2.15-.11,3.22-.13s2.14,0,3.21.13c-1.07.1-2.14.11-3.21.12S33.74,174.2,32.67,174.1Z"/><path class="cls-1" d="M44.06,171.2c.1,1.07.11,2.15.12,3.22s0,2.16-.12,3.23c-.11-1.07-.11-2.15-.13-3.23S44,172.27,44.06,171.2Z"/><path class="cls-1" d="M40.84,174.1C41.91,174,43,174,44.05,174s2.15,0,3.22.13c-1.07.1-2.14.11-3.22.12S41.91,174.2,40.84,174.1Z"/><path class="cls-1" d="M52.23,171.2c.1,1.07.11,2.15.12,3.22s0,2.16-.12,3.23c-.11-1.07-.12-2.15-.13-3.23S52.12,172.27,52.23,171.2Z"/><path class="cls-1" d="M49,174.1c1.07-.11,2.14-.11,3.21-.13s2.14,0,3.21.13c-1.07.1-2.14.11-3.21.12S50.08,174.2,49,174.1Z"/><path class="cls-1" d="M60.39,171.2c.11,1.07.11,2.15.13,3.22s0,2.16-.13,3.23c-.1-1.07-.11-2.15-.12-3.23S60.29,172.27,60.39,171.2Z"/><path class="cls-1" d="M57.18,174.1c1.07-.11,2.14-.11,3.21-.13s2.14,0,3.21.13c-1.07.1-2.14.11-3.21.12S58.25,174.2,57.18,174.1Z"/><path class="cls-1" d="M68.56,171.2c.11,1.07.11,2.15.13,3.22s0,2.16-.13,3.23c-.1-1.07-.11-2.15-.12-3.23S68.46,172.27,68.56,171.2Z"/><path class="cls-1" d="M65.35,174.1c1.07-.11,2.14-.11,3.21-.13s2.14,0,3.21.13c-1.07.1-2.14.11-3.21.12S66.42,174.2,65.35,174.1Z"/><path class="cls-1" d="M76.73,171.2c.1,1.07.11,2.15.13,3.22s0,2.16-.13,3.23c-.1-1.07-.11-2.15-.12-3.23S76.63,172.27,76.73,171.2Z"/><path class="cls-1" d="M73.52,174.1c1.07-.11,2.14-.11,3.21-.13s2.14,0,3.21.13c-1.07.1-2.14.11-3.21.12S74.59,174.2,73.52,174.1Z"/><path class="cls-1" d="M19.55,179.76c.1,1.07.11,2.15.13,3.22s0,2.16-.13,3.23c-.1-1.07-.11-2.15-.12-3.23S19.45,180.83,19.55,179.76Z"/><path class="cls-1" d="M16.34,182.66c1.07-.11,2.14-.11,3.21-.13s2.14,0,3.21.13c-1.07.1-2.14.11-3.21.12S17.41,182.76,16.34,182.66Z"/><path class="cls-1" d="M27.72,179.76c.1,1.07.11,2.15.12,3.22s0,2.16-.12,3.23c-.1-1.07-.11-2.15-.13-3.23S27.62,180.83,27.72,179.76Z"/><path class="cls-1" d="M24.51,182.66c1.07-.11,2.14-.11,3.21-.13s2.14,0,3.21.13c-1.07.1-2.14.11-3.21.12S25.58,182.76,24.51,182.66Z"/><path class="cls-1" d="M35.89,179.76c.1,1.07.11,2.15.12,3.22s0,2.16-.12,3.23c-.11-1.07-.11-2.15-.13-3.23S35.79,180.83,35.89,179.76Z"/><path class="cls-1" d="M32.67,182.66c1.07-.11,2.15-.11,3.22-.13s2.14,0,3.21.13c-1.07.1-2.14.11-3.21.12S33.74,182.76,32.67,182.66Z"/><path class="cls-1" d="M44.06,179.76c.1,1.07.11,2.15.12,3.22s0,2.16-.12,3.23c-.11-1.07-.11-2.15-.13-3.23S44,180.83,44.06,179.76Z"/><path class="cls-1" d="M40.84,182.66c1.07-.11,2.14-.11,3.21-.13s2.15,0,3.22.13c-1.07.1-2.14.11-3.22.12S41.91,182.76,40.84,182.66Z"/><path class="cls-1" d="M52.23,179.76c.1,1.07.11,2.15.12,3.22s0,2.16-.12,3.23c-.11-1.07-.12-2.15-.13-3.23S52.12,180.83,52.23,179.76Z"/><path class="cls-1" d="M49,182.66c1.07-.11,2.14-.11,3.21-.13s2.14,0,3.21.13c-1.07.1-2.14.11-3.21.12S50.08,182.76,49,182.66Z"/><path class="cls-1" d="M60.39,179.76c.11,1.07.11,2.15.13,3.22s0,2.16-.13,3.23c-.1-1.07-.11-2.15-.12-3.23S60.29,180.83,60.39,179.76Z"/><path class="cls-1" d="M57.18,182.66c1.07-.11,2.14-.11,3.21-.13s2.14,0,3.21.13c-1.07.1-2.14.11-3.21.12S58.25,182.76,57.18,182.66Z"/><path class="cls-1" d="M68.56,179.76c.11,1.07.11,2.15.13,3.22s0,2.16-.13,3.23c-.1-1.07-.11-2.15-.12-3.23S68.46,180.83,68.56,179.76Z"/><path class="cls-1" d="M65.35,182.66c1.07-.11,2.14-.11,3.21-.13s2.14,0,3.21.13c-1.07.1-2.14.11-3.21.12S66.42,182.76,65.35,182.66Z"/><path class="cls-1" d="M76.73,179.76c.1,1.07.11,2.15.13,3.22s0,2.16-.13,3.23c-.1-1.07-.11-2.15-.12-3.23S76.63,180.83,76.73,179.76Z"/><path class="cls-1" d="M73.52,182.66c1.07-.11,2.14-.11,3.21-.13s2.14,0,3.21.13c-1.07.1-2.14.11-3.21.12S74.59,182.76,73.52,182.66Z"/><path class="cls-1" d="M19.55,188.32c.1,1.07.11,2.15.13,3.22s0,2.16-.13,3.23c-.1-1.07-.11-2.15-.12-3.23S19.45,189.39,19.55,188.32Z"/><path class="cls-1" d="M16.34,191.22c1.07-.11,2.14-.11,3.21-.13s2.14,0,3.21.13c-1.07.1-2.14.11-3.21.12S17.41,191.32,16.34,191.22Z"/><path class="cls-1" d="M27.72,188.32c.1,1.07.11,2.15.12,3.22s0,2.16-.12,3.23c-.1-1.07-.11-2.15-.13-3.23S27.62,189.39,27.72,188.32Z"/><path class="cls-1" d="M24.51,191.22c1.07-.11,2.14-.11,3.21-.13s2.14,0,3.21.13c-1.07.1-2.14.11-3.21.12S25.58,191.32,24.51,191.22Z"/><path class="cls-1" d="M35.89,188.32c.1,1.07.11,2.15.12,3.22s0,2.16-.12,3.23c-.11-1.07-.11-2.15-.13-3.23S35.79,189.39,35.89,188.32Z"/><path class="cls-1" d="M32.67,191.22c1.07-.11,2.15-.11,3.22-.13s2.14,0,3.21.13c-1.07.1-2.14.11-3.21.12S33.74,191.32,32.67,191.22Z"/><path class="cls-1" d="M44.06,188.32c.1,1.07.11,2.15.12,3.22s0,2.16-.12,3.23c-.11-1.07-.11-2.15-.13-3.23S44,189.39,44.06,188.32Z"/><path class="cls-1" d="M40.84,191.22c1.07-.11,2.14-.11,3.21-.13s2.15,0,3.22.13c-1.07.1-2.14.11-3.22.12S41.91,191.32,40.84,191.22Z"/><path class="cls-1" d="M52.23,188.32c.1,1.07.11,2.15.12,3.22s0,2.16-.12,3.23c-.11-1.07-.12-2.15-.13-3.23S52.12,189.39,52.23,188.32Z"/><path class="cls-1" d="M49,191.22c1.07-.11,2.14-.11,3.21-.13s2.14,0,3.21.13c-1.07.1-2.14.11-3.21.12S50.08,191.32,49,191.22Z"/><path class="cls-1" d="M60.39,188.32c.11,1.07.11,2.15.13,3.22s0,2.16-.13,3.23c-.1-1.07-.11-2.15-.12-3.23S60.29,189.39,60.39,188.32Z"/><path class="cls-1" d="M57.18,191.22c1.07-.11,2.14-.11,3.21-.13s2.14,0,3.21.13c-1.07.1-2.14.11-3.21.12S58.25,191.32,57.18,191.22Z"/><path class="cls-1" d="M68.56,188.32c.11,1.07.11,2.15.13,3.22s0,2.16-.13,3.23c-.1-1.07-.11-2.15-.12-3.23S68.46,189.39,68.56,188.32Z"/><path class="cls-1" d="M65.35,191.22c1.07-.11,2.14-.11,3.21-.13s2.14,0,3.21.13c-1.07.1-2.14.11-3.21.12S66.42,191.32,65.35,191.22Z"/><path class="cls-1" d="M76.73,188.32c.1,1.07.11,2.15.13,3.22s0,2.16-.13,3.23c-.1-1.07-.11-2.15-.12-3.23S76.63,189.39,76.73,188.32Z"/><path class="cls-1" d="M73.52,191.22c1.07-.11,2.14-.11,3.21-.13s2.14,0,3.21.13c-1.07.1-2.14.11-3.21.12S74.59,191.32,73.52,191.22Z"/><path class="cls-1" d="M19.55,196.87c.1,1.08.11,2.16.13,3.23s0,2.16-.13,3.23c-.1-1.07-.11-2.15-.12-3.23S19.45,198,19.55,196.87Z"/><path class="cls-1" d="M16.34,199.78c1.07-.11,2.14-.11,3.21-.13s2.14,0,3.21.13c-1.07.1-2.14.11-3.21.12S17.41,199.88,16.34,199.78Z"/><path class="cls-1" d="M27.72,196.87c.1,1.08.11,2.16.12,3.23s0,2.16-.12,3.23c-.1-1.07-.11-2.15-.13-3.23S27.62,198,27.72,196.87Z"/><path class="cls-1" d="M24.51,199.78c1.07-.11,2.14-.11,3.21-.13s2.14,0,3.21.13c-1.07.1-2.14.11-3.21.12S25.58,199.88,24.51,199.78Z"/><path class="cls-1" d="M35.89,196.87C36,198,36,199,36,200.1s0,2.16-.12,3.23c-.11-1.07-.11-2.15-.13-3.23S35.79,198,35.89,196.87Z"/><path class="cls-1" d="M32.67,199.78c1.07-.11,2.15-.11,3.22-.13s2.14,0,3.21.13c-1.07.1-2.14.11-3.21.12S33.74,199.88,32.67,199.78Z"/><path class="cls-1" d="M44.06,196.87c.1,1.08.11,2.16.12,3.23s0,2.16-.12,3.23c-.11-1.07-.11-2.15-.13-3.23S44,198,44.06,196.87Z"/><path class="cls-1" d="M40.84,199.78c1.07-.11,2.14-.11,3.21-.13s2.15,0,3.22.13c-1.07.1-2.14.11-3.22.12S41.91,199.88,40.84,199.78Z"/><path class="cls-1" d="M52.23,196.87c.1,1.08.11,2.16.12,3.23s0,2.16-.12,3.23c-.11-1.07-.12-2.15-.13-3.23S52.12,198,52.23,196.87Z"/><path class="cls-1" d="M49,199.78c1.07-.11,2.14-.11,3.21-.13s2.14,0,3.21.13c-1.07.1-2.14.11-3.21.12S50.08,199.88,49,199.78Z"/><path class="cls-1" d="M60.39,196.87c.11,1.08.11,2.16.13,3.23s0,2.16-.13,3.23c-.1-1.07-.11-2.15-.12-3.23S60.29,198,60.39,196.87Z"/><path class="cls-1" d="M57.18,199.78c1.07-.11,2.14-.11,3.21-.13s2.14,0,3.21.13c-1.07.1-2.14.11-3.21.12S58.25,199.88,57.18,199.78Z"/><path class="cls-1" d="M68.56,196.87c.11,1.08.11,2.16.13,3.23s0,2.16-.13,3.23c-.1-1.07-.11-2.15-.12-3.23S68.46,198,68.56,196.87Z"/><path class="cls-1" d="M65.35,199.78c1.07-.11,2.14-.11,3.21-.13s2.14,0,3.21.13c-1.07.1-2.14.11-3.21.12S66.42,199.88,65.35,199.78Z"/><path class="cls-1" d="M76.73,196.87c.1,1.08.11,2.16.13,3.23s0,2.16-.13,3.23c-.1-1.07-.11-2.15-.12-3.23S76.63,198,76.73,196.87Z"/><path class="cls-1" d="M73.52,199.78c1.07-.11,2.14-.11,3.21-.13s2.14,0,3.21.13c-1.07.1-2.14.11-3.21.12S74.59,199.88,73.52,199.78Z"/><path class="cls-1" d="M19.55,205.43c.1,1.08.11,2.16.13,3.23s0,2.16-.13,3.23c-.1-1.07-.11-2.15-.12-3.23S19.45,206.51,19.55,205.43Z"/><path class="cls-1" d="M16.34,208.34c1.07-.11,2.14-.11,3.21-.13s2.14,0,3.21.13c-1.07.1-2.14.11-3.21.12S17.41,208.44,16.34,208.34Z"/><path class="cls-1" d="M27.72,205.43c.1,1.08.11,2.16.12,3.23s0,2.16-.12,3.23c-.1-1.07-.11-2.15-.13-3.23S27.62,206.51,27.72,205.43Z"/><path class="cls-1" d="M24.51,208.34c1.07-.11,2.14-.11,3.21-.13s2.14,0,3.21.13c-1.07.1-2.14.11-3.21.12S25.58,208.44,24.51,208.34Z"/><path class="cls-1" d="M35.89,205.43c.1,1.08.11,2.16.12,3.23s0,2.16-.12,3.23c-.11-1.07-.11-2.15-.13-3.23S35.79,206.51,35.89,205.43Z"/><path class="cls-1" d="M32.67,208.34c1.07-.11,2.15-.11,3.22-.13s2.14,0,3.21.13c-1.07.1-2.14.11-3.21.12S33.74,208.44,32.67,208.34Z"/><path class="cls-1" d="M44.06,205.43c.1,1.08.11,2.16.12,3.23s0,2.16-.12,3.23c-.11-1.07-.11-2.15-.13-3.23S44,206.51,44.06,205.43Z"/><path class="cls-1" d="M40.84,208.34c1.07-.11,2.14-.11,3.21-.13s2.15,0,3.22.13c-1.07.1-2.14.11-3.22.12S41.91,208.44,40.84,208.34Z"/><path class="cls-1" d="M52.23,205.43c.1,1.08.11,2.16.12,3.23s0,2.16-.12,3.23c-.11-1.07-.12-2.15-.13-3.23S52.12,206.51,52.23,205.43Z"/><path class="cls-1" d="M49,208.34c1.07-.11,2.14-.11,3.21-.13s2.14,0,3.21.13c-1.07.1-2.14.11-3.21.12S50.08,208.44,49,208.34Z"/><path class="cls-1" d="M60.39,205.43c.11,1.08.11,2.16.13,3.23s0,2.16-.13,3.23c-.1-1.07-.11-2.15-.12-3.23S60.29,206.51,60.39,205.43Z"/><path class="cls-1" d="M57.18,208.34c1.07-.11,2.14-.11,3.21-.13s2.14,0,3.21.13c-1.07.1-2.14.11-3.21.12S58.25,208.44,57.18,208.34Z"/><path class="cls-1" d="M68.56,205.43c.11,1.08.11,2.16.13,3.23s0,2.16-.13,3.23c-.1-1.07-.11-2.15-.12-3.23S68.46,206.51,68.56,205.43Z"/><path class="cls-1" d="M65.35,208.34c1.07-.11,2.14-.11,3.21-.13s2.14,0,3.21.13c-1.07.1-2.14.11-3.21.12S66.42,208.44,65.35,208.34Z"/><path class="cls-1" d="M76.73,205.43c.1,1.08.11,2.16.13,3.23s0,2.16-.13,3.23c-.1-1.07-.11-2.15-.12-3.23S76.63,206.51,76.73,205.43Z"/><path class="cls-1" d="M73.52,208.34c1.07-.11,2.14-.11,3.21-.13s2.14,0,3.21.13c-1.07.1-2.14.11-3.21.12S74.59,208.44,73.52,208.34Z"/><path class="cls-1" d="M19.55,214c.1,1.08.11,2.16.13,3.23s0,2.15-.13,3.23c-.1-1.08-.11-2.15-.12-3.23S19.45,215.07,19.55,214Z"/><path class="cls-1" d="M16.34,216.9c1.07-.11,2.14-.11,3.21-.13s2.14,0,3.21.13c-1.07.1-2.14.11-3.21.12S17.41,217,16.34,216.9Z"/><path class="cls-1" d="M27.72,214c.1,1.08.11,2.16.12,3.23s0,2.15-.12,3.23c-.1-1.08-.11-2.15-.13-3.23S27.62,215.07,27.72,214Z"/><path class="cls-1" d="M24.51,216.9c1.07-.11,2.14-.11,3.21-.13s2.14,0,3.21.13c-1.07.1-2.14.11-3.21.12S25.58,217,24.51,216.9Z"/><path class="cls-1" d="M3.21,0c.11,1.08.11,2.15.13,3.23s0,2.15-.13,3.23c-.1-1.08-.11-2.16-.12-3.23S3.11,1.08,3.21,0Z"/><path class="cls-1" d="M0,2.9c1.07-.1,2.14-.11,3.21-.12s2.14,0,3.21.12C5.35,3,4.28,3,3.21,3S1.07,3,0,2.9Z"/><path class="cls-1" d="M11.38,0c.11,1.08.11,2.15.13,3.23s0,2.15-.13,3.23c-.1-1.08-.11-2.16-.12-3.23S11.28,1.08,11.38,0Z"/><path class="cls-1" d="M8.17,2.9c1.07-.1,2.14-.11,3.21-.12s2.14,0,3.21.12C13.52,3,12.45,3,11.38,3S9.24,3,8.17,2.9Z"/><path class="cls-1" d="M3.21,8.56c.11,1.08.11,2.15.13,3.23s0,2.15-.13,3.23c-.1-1.08-.11-2.16-.12-3.23S3.11,9.64,3.21,8.56Z"/><path class="cls-1" d="M0,11.46c1.07-.1,2.14-.11,3.21-.12s2.14,0,3.21.12c-1.07.11-2.14.11-3.21.13S1.07,11.56,0,11.46Z"/><path class="cls-1" d="M11.38,8.56c.11,1.08.11,2.15.13,3.23s0,2.15-.13,3.23c-.1-1.08-.11-2.16-.12-3.23S11.28,9.64,11.38,8.56Z"/><path class="cls-1" d="M8.17,11.46c1.07-.1,2.14-.11,3.21-.12s2.14,0,3.21.12c-1.07.11-2.14.11-3.21.13S9.24,11.56,8.17,11.46Z"/><path class="cls-1" d="M3.21,17.12c.11,1.08.11,2.15.13,3.23s0,2.15-.13,3.23c-.1-1.08-.11-2.16-.12-3.23S3.11,18.2,3.21,17.12Z"/><path class="cls-1" d="M0,20c1.07-.1,2.14-.11,3.21-.12s2.14,0,3.21.12c-1.07.11-2.14.11-3.21.13S1.07,20.12,0,20Z"/><path class="cls-1" d="M11.38,17.12c.11,1.08.11,2.15.13,3.23s0,2.15-.13,3.23c-.1-1.08-.11-2.16-.12-3.23S11.28,18.2,11.38,17.12Z"/><path class="cls-1" d="M8.17,20c1.07-.1,2.14-.11,3.21-.12s2.14,0,3.21.12c-1.07.11-2.14.11-3.21.13S9.24,20.12,8.17,20Z"/><path class="cls-1" d="M3.21,25.68c.11,1.08.11,2.15.13,3.23s0,2.15-.13,3.23c-.1-1.08-.11-2.16-.12-3.23S3.11,26.76,3.21,25.68Z"/><path class="cls-1" d="M0,28.58c1.07-.1,2.14-.11,3.21-.12s2.14,0,3.21.12c-1.07.11-2.14.11-3.21.13S1.07,28.68,0,28.58Z"/><path class="cls-1" d="M11.38,25.68c.11,1.08.11,2.15.13,3.23s0,2.15-.13,3.23c-.1-1.08-.11-2.16-.12-3.23S11.28,26.76,11.38,25.68Z"/><path class="cls-1" d="M8.17,28.58c1.07-.1,2.14-.11,3.21-.12s2.14,0,3.21.12c-1.07.11-2.14.11-3.21.13S9.24,28.68,8.17,28.58Z"/><path class="cls-1" d="M3.21,34.24c.11,1.08.11,2.15.13,3.23s0,2.15-.13,3.23c-.1-1.08-.11-2.16-.12-3.23S3.11,35.32,3.21,34.24Z"/><path class="cls-1" d="M0,37.14C1.07,37,2.14,37,3.21,37s2.14,0,3.21.12c-1.07.11-2.14.11-3.21.13S1.07,37.24,0,37.14Z"/><path class="cls-1" d="M11.38,34.24c.11,1.08.11,2.15.13,3.23s0,2.15-.13,3.23c-.1-1.08-.11-2.16-.12-3.23S11.28,35.32,11.38,34.24Z"/><path class="cls-1" d="M8.17,37.14C9.24,37,10.31,37,11.38,37s2.14,0,3.21.12c-1.07.11-2.14.11-3.21.13S9.24,37.24,8.17,37.14Z"/><path class="cls-1" d="M3.21,42.8c.11,1.08.11,2.15.13,3.23s0,2.15-.13,3.23c-.1-1.08-.11-2.16-.12-3.23S3.11,43.88,3.21,42.8Z"/><path class="cls-1" d="M0,45.7c1.07-.1,2.14-.11,3.21-.12s2.14,0,3.21.12c-1.07.1-2.14.11-3.21.13S1.07,45.8,0,45.7Z"/><path class="cls-1" d="M11.38,42.8c.11,1.08.11,2.15.13,3.23s0,2.15-.13,3.23c-.1-1.08-.11-2.16-.12-3.23S11.28,43.88,11.38,42.8Z"/><path class="cls-1" d="M8.17,45.7c1.07-.1,2.14-.11,3.21-.12s2.14,0,3.21.12c-1.07.1-2.14.11-3.21.13S9.24,45.8,8.17,45.7Z"/><path class="cls-1" d="M3.21,51.36c.11,1.07.11,2.15.13,3.23s0,2.15-.13,3.23c-.1-1.08-.11-2.16-.12-3.23S3.11,52.43,3.21,51.36Z"/><path class="cls-1" d="M0,54.26c1.07-.1,2.14-.11,3.21-.12s2.14,0,3.21.12c-1.07.1-2.14.11-3.21.13S1.07,54.36,0,54.26Z"/><path class="cls-1" d="M11.38,51.36c.11,1.07.11,2.15.13,3.23s0,2.15-.13,3.23c-.1-1.08-.11-2.16-.12-3.23S11.28,52.43,11.38,51.36Z"/><path class="cls-1" d="M8.17,54.26c1.07-.1,2.14-.11,3.21-.12s2.14,0,3.21.12c-1.07.1-2.14.11-3.21.13S9.24,54.36,8.17,54.26Z"/><path class="cls-1" d="M3.21,59.92c.11,1.07.11,2.15.13,3.23s0,2.15-.13,3.23c-.1-1.08-.11-2.16-.12-3.23S3.11,61,3.21,59.92Z"/><path class="cls-1" d="M0,62.82c1.07-.1,2.14-.11,3.21-.12s2.14,0,3.21.12c-1.07.1-2.14.11-3.21.13S1.07,62.92,0,62.82Z"/><path class="cls-1" d="M11.38,59.92c.11,1.07.11,2.15.13,3.23s0,2.15-.13,3.23c-.1-1.08-.11-2.16-.12-3.23S11.28,61,11.38,59.92Z"/><path class="cls-1" d="M8.17,62.82c1.07-.1,2.14-.11,3.21-.12s2.14,0,3.21.12c-1.07.1-2.14.11-3.21.13S9.24,62.92,8.17,62.82Z"/><path class="cls-1" d="M3.21,68.48c.11,1.07.11,2.15.13,3.23s0,2.15-.13,3.22c-.1-1.07-.11-2.15-.12-3.22S3.11,69.55,3.21,68.48Z"/><path class="cls-1" d="M0,71.38c1.07-.1,2.14-.11,3.21-.12s2.14,0,3.21.12c-1.07.1-2.14.11-3.21.13S1.07,71.48,0,71.38Z"/><path class="cls-1" d="M11.38,68.48c.11,1.07.11,2.15.13,3.23s0,2.15-.13,3.22c-.1-1.07-.11-2.15-.12-3.22S11.28,69.55,11.38,68.48Z"/><path class="cls-1" d="M8.17,71.38c1.07-.1,2.14-.11,3.21-.12s2.14,0,3.21.12c-1.07.1-2.14.11-3.21.13S9.24,71.48,8.17,71.38Z"/><path class="cls-1" d="M3.21,77c.11,1.07.11,2.15.13,3.23s0,2.15-.13,3.22c-.1-1.07-.11-2.15-.12-3.22S3.11,78.11,3.21,77Z"/><path class="cls-1" d="M0,79.94c1.07-.1,2.14-.11,3.21-.12s2.14,0,3.21.12c-1.07.1-2.14.11-3.21.13S1.07,80,0,79.94Z"/><path class="cls-1" d="M11.38,77c.11,1.07.11,2.15.13,3.23s0,2.15-.13,3.22c-.1-1.07-.11-2.15-.12-3.22S11.28,78.11,11.38,77Z"/><path class="cls-1" d="M8.17,79.94c1.07-.1,2.14-.11,3.21-.12s2.14,0,3.21.12c-1.07.1-2.14.11-3.21.13S9.24,80,8.17,79.94Z"/><path class="cls-1" d="M3.21,85.6c.11,1.07.11,2.15.13,3.23s0,2.15-.13,3.22c-.1-1.07-.11-2.15-.12-3.22S3.11,86.67,3.21,85.6Z"/><path class="cls-1" d="M0,88.5c1.07-.1,2.14-.11,3.21-.12s2.14,0,3.21.12c-1.07.1-2.14.11-3.21.12S1.07,88.6,0,88.5Z"/><path class="cls-1" d="M11.38,85.6c.11,1.07.11,2.15.13,3.23s0,2.15-.13,3.22c-.1-1.07-.11-2.15-.12-3.22S11.28,86.67,11.38,85.6Z"/><path class="cls-1" d="M8.17,88.5c1.07-.1,2.14-.11,3.21-.12s2.14,0,3.21.12c-1.07.1-2.14.11-3.21.12S9.24,88.6,8.17,88.5Z"/><path class="cls-1" d="M3.21,94.16c.11,1.07.11,2.15.13,3.23s0,2.15-.13,3.22c-.1-1.07-.11-2.15-.12-3.22S3.11,95.23,3.21,94.16Z"/><path class="cls-1" d="M0,97.06c1.07-.1,2.14-.11,3.21-.13s2.14,0,3.21.13c-1.07.1-2.14.11-3.21.12S1.07,97.16,0,97.06Z"/><path class="cls-1" d="M11.38,94.16c.11,1.07.11,2.15.13,3.23s0,2.15-.13,3.22c-.1-1.07-.11-2.15-.12-3.22S11.28,95.23,11.38,94.16Z"/><path class="cls-1" d="M8.17,97.06c1.07-.1,2.14-.11,3.21-.13s2.14,0,3.21.13c-1.07.1-2.14.11-3.21.12S9.24,97.16,8.17,97.06Z"/><path class="cls-1" d="M3.21,102.72c.11,1.07.11,2.15.13,3.23s0,2.15-.13,3.22c-.1-1.07-.11-2.15-.12-3.22S3.11,103.79,3.21,102.72Z"/><path class="cls-1" d="M0,105.62c1.07-.1,2.14-.11,3.21-.13s2.14,0,3.21.13c-1.07.1-2.14.11-3.21.12S1.07,105.72,0,105.62Z"/><path class="cls-1" d="M11.38,102.72c.11,1.07.11,2.15.13,3.23s0,2.15-.13,3.22c-.1-1.07-.11-2.15-.12-3.22S11.28,103.79,11.38,102.72Z"/><path class="cls-1" d="M8.17,105.62c1.07-.1,2.14-.11,3.21-.13s2.14,0,3.21.13c-1.07.1-2.14.11-3.21.12S9.24,105.72,8.17,105.62Z"/><path class="cls-1" d="M3.21,111.28c.11,1.07.11,2.15.13,3.23s0,2.15-.13,3.22c-.1-1.07-.11-2.15-.12-3.22S3.11,112.35,3.21,111.28Z"/><path class="cls-1" d="M0,114.18c1.07-.1,2.14-.11,3.21-.13s2.14,0,3.21.13c-1.07.1-2.14.11-3.21.12S1.07,114.28,0,114.18Z"/><path class="cls-1" d="M11.38,111.28c.11,1.07.11,2.15.13,3.23s0,2.15-.13,3.22c-.1-1.07-.11-2.15-.12-3.22S11.28,112.35,11.38,111.28Z"/><path class="cls-1" d="M8.17,114.18c1.07-.1,2.14-.11,3.21-.13s2.14,0,3.21.13c-1.07.1-2.14.11-3.21.12S9.24,114.28,8.17,114.18Z"/><path class="cls-1" d="M3.21,119.84c.11,1.07.11,2.15.13,3.23s0,2.15-.13,3.22c-.1-1.07-.11-2.15-.12-3.22S3.11,120.91,3.21,119.84Z"/><path class="cls-1" d="M0,122.74c1.07-.1,2.14-.11,3.21-.13s2.14,0,3.21.13c-1.07.1-2.14.11-3.21.12S1.07,122.84,0,122.74Z"/><path class="cls-1" d="M11.38,119.84c.11,1.07.11,2.15.13,3.23s0,2.15-.13,3.22c-.1-1.07-.11-2.15-.12-3.22S11.28,120.91,11.38,119.84Z"/><path class="cls-1" d="M8.17,122.74c1.07-.1,2.14-.11,3.21-.13s2.14,0,3.21.13c-1.07.1-2.14.11-3.21.12S9.24,122.84,8.17,122.74Z"/><path class="cls-1" d="M3.21,128.4c.11,1.07.11,2.15.13,3.22s0,2.16-.13,3.23c-.1-1.07-.11-2.15-.12-3.23S3.11,129.47,3.21,128.4Z"/><path class="cls-1" d="M0,131.3c1.07-.1,2.14-.11,3.21-.13s2.14,0,3.21.13c-1.07.1-2.14.11-3.21.12S1.07,131.4,0,131.3Z"/><path class="cls-1" d="M11.38,128.4c.11,1.07.11,2.15.13,3.22s0,2.16-.13,3.23c-.1-1.07-.11-2.15-.12-3.23S11.28,129.47,11.38,128.4Z"/><path class="cls-1" d="M8.17,131.3c1.07-.1,2.14-.11,3.21-.13s2.14,0,3.21.13c-1.07.1-2.14.11-3.21.12S9.24,131.4,8.17,131.3Z"/><path class="cls-1" d="M3.21,137c.11,1.07.11,2.15.13,3.22s0,2.16-.13,3.23c-.1-1.07-.11-2.15-.12-3.23S3.11,138,3.21,137Z"/><path class="cls-1" d="M0,139.86c1.07-.1,2.14-.11,3.21-.13s2.14,0,3.21.13c-1.07.1-2.14.11-3.21.12S1.07,140,0,139.86Z"/><path class="cls-1" d="M11.38,137c.11,1.07.11,2.15.13,3.22s0,2.16-.13,3.23c-.1-1.07-.11-2.15-.12-3.23S11.28,138,11.38,137Z"/><path class="cls-1" d="M8.17,139.86c1.07-.1,2.14-.11,3.21-.13s2.14,0,3.21.13c-1.07.1-2.14.11-3.21.12S9.24,140,8.17,139.86Z"/><path class="cls-1" d="M3.21,145.52c.11,1.07.11,2.15.13,3.22s0,2.16-.13,3.23c-.1-1.07-.11-2.15-.12-3.23S3.11,146.59,3.21,145.52Z"/><path class="cls-1" d="M0,148.42c1.07-.1,2.14-.11,3.21-.13s2.14,0,3.21.13c-1.07.1-2.14.11-3.21.12S1.07,148.52,0,148.42Z"/><path class="cls-1" d="M11.38,145.52c.11,1.07.11,2.15.13,3.22s0,2.16-.13,3.23c-.1-1.07-.11-2.15-.12-3.23S11.28,146.59,11.38,145.52Z"/><path class="cls-1" d="M8.17,148.42c1.07-.1,2.14-.11,3.21-.13s2.14,0,3.21.13c-1.07.1-2.14.11-3.21.12S9.24,148.52,8.17,148.42Z"/><path class="cls-1" d="M3.21,154.08c.11,1.07.11,2.15.13,3.22s0,2.16-.13,3.23c-.1-1.07-.11-2.15-.12-3.23S3.11,155.15,3.21,154.08Z"/><path class="cls-1" d="M0,157c1.07-.1,2.14-.11,3.21-.13s2.14,0,3.21.13c-1.07.1-2.14.11-3.21.12S1.07,157.08,0,157Z"/><path class="cls-1" d="M11.38,154.08c.11,1.07.11,2.15.13,3.22s0,2.16-.13,3.23c-.1-1.07-.11-2.15-.12-3.23S11.28,155.15,11.38,154.08Z"/><path class="cls-1" d="M8.17,157c1.07-.1,2.14-.11,3.21-.13s2.14,0,3.21.13c-1.07.1-2.14.11-3.21.12S9.24,157.08,8.17,157Z"/><path class="cls-1" d="M3.21,162.64c.11,1.07.11,2.15.13,3.22s0,2.16-.13,3.23c-.1-1.07-.11-2.15-.12-3.23S3.11,163.71,3.21,162.64Z"/><path class="cls-1" d="M0,165.54c1.07-.1,2.14-.11,3.21-.13s2.14,0,3.21.13c-1.07.1-2.14.11-3.21.12S1.07,165.64,0,165.54Z"/><path class="cls-1" d="M11.38,162.64c.11,1.07.11,2.15.13,3.22s0,2.16-.13,3.23c-.1-1.07-.11-2.15-.12-3.23S11.28,163.71,11.38,162.64Z"/><path class="cls-1" d="M8.17,165.54c1.07-.1,2.14-.11,3.21-.13s2.14,0,3.21.13c-1.07.1-2.14.11-3.21.12S9.24,165.64,8.17,165.54Z"/><path class="cls-1" d="M3.21,171.2c.11,1.07.11,2.15.13,3.22s0,2.16-.13,3.23c-.1-1.07-.11-2.15-.12-3.23S3.11,172.27,3.21,171.2Z"/><path class="cls-1" d="M0,174.1C1.07,174,2.14,174,3.21,174s2.14,0,3.21.13c-1.07.1-2.14.11-3.21.12S1.07,174.2,0,174.1Z"/><path class="cls-1" d="M11.38,171.2c.11,1.07.11,2.15.13,3.22s0,2.16-.13,3.23c-.1-1.07-.11-2.15-.12-3.23S11.28,172.27,11.38,171.2Z"/><path class="cls-1" d="M8.17,174.1c1.07-.11,2.14-.11,3.21-.13s2.14,0,3.21.13c-1.07.1-2.14.11-3.21.12S9.24,174.2,8.17,174.1Z"/><path class="cls-1" d="M3.21,179.76c.11,1.07.11,2.15.13,3.22s0,2.16-.13,3.23c-.1-1.07-.11-2.15-.12-3.23S3.11,180.83,3.21,179.76Z"/><path class="cls-1" d="M0,182.66c1.07-.11,2.14-.11,3.21-.13s2.14,0,3.21.13c-1.07.1-2.14.11-3.21.12S1.07,182.76,0,182.66Z"/><path class="cls-1" d="M11.38,179.76c.11,1.07.11,2.15.13,3.22s0,2.16-.13,3.23c-.1-1.07-.11-2.15-.12-3.23S11.28,180.83,11.38,179.76Z"/><path class="cls-1" d="M8.17,182.66c1.07-.11,2.14-.11,3.21-.13s2.14,0,3.21.13c-1.07.1-2.14.11-3.21.12S9.24,182.76,8.17,182.66Z"/><path class="cls-1" d="M3.21,188.32c.11,1.07.11,2.15.13,3.22s0,2.16-.13,3.23c-.1-1.07-.11-2.15-.12-3.23S3.11,189.39,3.21,188.32Z"/><path class="cls-1" d="M0,191.22c1.07-.11,2.14-.11,3.21-.13s2.14,0,3.21.13c-1.07.1-2.14.11-3.21.12S1.07,191.32,0,191.22Z"/><path class="cls-1" d="M11.38,188.32c.11,1.07.11,2.15.13,3.22s0,2.16-.13,3.23c-.1-1.07-.11-2.15-.12-3.23S11.28,189.39,11.38,188.32Z"/><path class="cls-1" d="M8.17,191.22c1.07-.11,2.14-.11,3.21-.13s2.14,0,3.21.13c-1.07.1-2.14.11-3.21.12S9.24,191.32,8.17,191.22Z"/><path class="cls-1" d="M3.21,196.87c.11,1.08.11,2.16.13,3.23s0,2.16-.13,3.23c-.1-1.07-.11-2.15-.12-3.23S3.11,198,3.21,196.87Z"/><path class="cls-1" d="M0,199.78c1.07-.11,2.14-.11,3.21-.13s2.14,0,3.21.13c-1.07.1-2.14.11-3.21.12S1.07,199.88,0,199.78Z"/><path class="cls-1" d="M11.38,196.87c.11,1.08.11,2.16.13,3.23s0,2.16-.13,3.23c-.1-1.07-.11-2.15-.12-3.23S11.28,198,11.38,196.87Z"/><path class="cls-1" d="M8.17,199.78c1.07-.11,2.14-.11,3.21-.13s2.14,0,3.21.13c-1.07.1-2.14.11-3.21.12S9.24,199.88,8.17,199.78Z"/><path class="cls-1" d="M3.21,205.43c.11,1.08.11,2.16.13,3.23s0,2.16-.13,3.23c-.1-1.07-.11-2.15-.12-3.23S3.11,206.51,3.21,205.43Z"/><path class="cls-1" d="M0,208.34c1.07-.11,2.14-.11,3.21-.13s2.14,0,3.21.13c-1.07.1-2.14.11-3.21.12S1.07,208.44,0,208.34Z"/><path class="cls-1" d="M11.38,205.43c.11,1.08.11,2.16.13,3.23s0,2.16-.13,3.23c-.1-1.07-.11-2.15-.12-3.23S11.28,206.51,11.38,205.43Z"/><path class="cls-1" d="M8.17,208.34c1.07-.11,2.14-.11,3.21-.13s2.14,0,3.21.13c-1.07.1-2.14.11-3.21.12S9.24,208.44,8.17,208.34Z"/><path class="cls-1" d="M3.21,214c.11,1.08.11,2.16.13,3.23s0,2.15-.13,3.23c-.1-1.08-.11-2.15-.12-3.23S3.11,215.07,3.21,214Z"/><path class="cls-1" d="M0,216.9c1.07-.11,2.14-.11,3.21-.13s2.14,0,3.21.13c-1.07.1-2.14.11-3.21.12S1.07,217,0,216.9Z"/><path class="cls-1" d="M11.38,214c.11,1.08.11,2.16.13,3.23s0,2.15-.13,3.23c-.1-1.08-.11-2.15-.12-3.23S11.28,215.07,11.38,214Z"/><path class="cls-1" d="M8.17,216.9c1.07-.11,2.14-.11,3.21-.13s2.14,0,3.21.13c-1.07.1-2.14.11-3.21.12S9.24,217,8.17,216.9Z"/><path class="cls-1" d="M35.89,214c.1,1.08.11,2.16.12,3.23s0,2.15-.12,3.23c-.11-1.08-.11-2.15-.13-3.23S35.79,215.07,35.89,214Z"/><path class="cls-1" d="M32.67,216.9c1.07-.11,2.15-.11,3.22-.13s2.14,0,3.21.13C38,217,37,217,35.89,217S33.74,217,32.67,216.9Z"/><path class="cls-1" d="M44.06,214c.1,1.08.11,2.16.12,3.23s0,2.15-.12,3.23c-.11-1.08-.11-2.15-.13-3.23S44,215.07,44.06,214Z"/><path class="cls-1" d="M40.84,216.9c1.07-.11,2.14-.11,3.21-.13s2.15,0,3.22.13c-1.07.1-2.14.11-3.22.12S41.91,217,40.84,216.9Z"/><path class="cls-1" d="M52.23,214c.1,1.08.11,2.16.12,3.23s0,2.15-.12,3.23c-.11-1.08-.12-2.15-.13-3.23S52.12,215.07,52.23,214Z"/><path class="cls-1" d="M49,216.9c1.07-.11,2.14-.11,3.21-.13s2.14,0,3.21.13c-1.07.1-2.14.11-3.21.12S50.08,217,49,216.9Z"/><path class="cls-1" d="M60.39,214c.11,1.08.11,2.16.13,3.23s0,2.15-.13,3.23c-.1-1.08-.11-2.15-.12-3.23S60.29,215.07,60.39,214Z"/><path class="cls-1" d="M57.18,216.9c1.07-.11,2.14-.11,3.21-.13s2.14,0,3.21.13c-1.07.1-2.14.11-3.21.12S58.25,217,57.18,216.9Z"/><path class="cls-1" d="M68.56,214c.11,1.08.11,2.16.13,3.23s0,2.15-.13,3.23c-.1-1.08-.11-2.15-.12-3.23S68.46,215.07,68.56,214Z"/><path class="cls-1" d="M65.35,216.9c1.07-.11,2.14-.11,3.21-.13s2.14,0,3.21.13c-1.07.1-2.14.11-3.21.12S66.42,217,65.35,216.9Z"/><path class="cls-1" d="M76.73,214c.1,1.08.11,2.16.13,3.23s0,2.15-.13,3.23c-.1-1.08-.11-2.15-.12-3.23S76.63,215.07,76.73,214Z"/><path class="cls-1" d="M73.52,216.9c1.07-.11,2.14-.11,3.21-.13s2.14,0,3.21.13c-1.07.1-2.14.11-3.21.12S74.59,217,73.52,216.9Z"/></g></g></g></svg>