<svg xmlns="http://www.w3.org/2000/svg"
     viewBox="0 0 87.35 146"><defs>
    <style>.cls-1{opacity:0.2;}.cls-2{fill:#62574d;}
    </style></defs><title>Lifes</title><g
        id="Layer_2" data-name="Layer 2">
    <g id="главная"><g id="leaves" class="cls-1">
        <g id="Листья"><path class="cls-2" d="M49.64,140.09l1.13-.05Z"/>
            <path class="cls-2" d="M39.58,138.25c-1.09-.32-2.15-.68-3.21-1s-2.07-.8-3.08-1.24a41.4,41.4,0,0,1-10.52-7.08,59.46,59.46,0,0,1-8.33-9.09c-.64-.82-1.15-1.73-1.74-2.6A30.6,30.6,0,0,1,11,114.54l-.81-1.37c-.26-.46-.48-1-.72-1.42-.45-1-1-1.88-1.47-2.85-.88-2-1.81-3.92-2.52-6S4.09,98.8,3.44,96.71A86.64,86.64,0,0,1,0,70.5l0,6.65c.05,2.22.15,4.44.23,6.65l.49,6.64.4,3.31c.13,1.1.24,2.21.46,3.3.39,2.19.73,4.39,1.3,6.55s1.15,4.31,1.8,6.45a56.53,56.53,0,0,0,5.83,12.18,37.84,37.84,0,0,0,9.32,10.08,39.8,39.8,0,0,0,12.54,6.14,47.09,47.09,0,0,0,13.92,1.72c1.11,0,2.23,0,3.35-.08A18.6,18.6,0,0,1,46.3,140,36.55,36.55,0,0,1,39.58,138.25Z"/><path class="cls-2" d="M64.45,133.75l-.14-.3a98.58,98.58,0,0,0-6.83-12.51c-6.85-10.7-17.63-23.13-33.8-31.47a118.37,118.37,0,0,1,29.18,33.25,91.59,91.59,0,0,1,7.23,15.57c.14.38.07.17.07.17l.27.79c.74,2.19,1.41,4.45,2,6.75l5.3-3.94a69.29,69.29,0,0,0-3-7.79C64.62,134.1,64.53,133.92,64.45,133.75Z"/><path class="cls-2" d="M68.13,113.61c0,.28.06.56.08.84,0,1.66-.18,3.3-.36,4.93s-.46,3.25-.77,4.87S66.4,127.46,66,129a48.32,48.32,0,0,0,1-4.81,34.55,34.55,0,0,0,.43-4.87,27,27,0,0,0-.26-4.84c-.75-14.06-9.67-25.32-25.93-33.2h0c2.37-14.63,12.71-39.77,12.71-39.77a109.34,109.34,0,0,0-17,37.61,127.78,127.78,0,0,0-24.59-6.6l.11-.49v0l-.11.51A123.26,123.26,0,0,0,0,70.5c4.19.13,8.35.53,12.5,1.07h0l.5.09C18.25,50.84,33.62,26.08,69.39,0,69.39,0,110.61,77.07,68.13,113.61Z"/></g></g></g></g></svg>